<svg width="566" height="270" viewBox="0 0 566 270" fill="none" xmlns="http://www.w3.org/2000/svg">
<g clip-path="url(#clip0_31_235)">
<mask id="mask0_31_235" style="mask-type:luminance" maskUnits="userSpaceOnUse" x="0" y="0" width="566" height="270">
<path d="M566 0H0V269.427H566V0Z" fill="white"/>
</mask>
<g mask="url(#mask0_31_235)">
<mask id="mask1_31_235" style="mask-type:luminance" maskUnits="userSpaceOnUse" x="0" y="0" width="566" height="270">
<path d="M566 0H0V269.427H566V0Z" fill="white"/>
</mask>
<g mask="url(#mask1_31_235)">
<path d="M115.01 180.22C115.195 180.2 115.376 180.149 115.544 180.07C115.713 179.992 115.893 179.941 116.078 179.92C116.446 179.77 116.83 179.662 117.223 179.6C117.616 179.546 118.001 179.443 118.368 179.292C121.396 178.262 124.311 176.926 127.068 175.305C128.445 174.524 129.748 173.62 130.962 172.605C132.13 171.618 133.275 170.636 134.398 169.659C136.513 167.539 138.406 165.21 140.048 162.706C141.472 160.434 142.698 158.045 143.713 155.563C144.215 154.385 144.623 153.169 144.932 151.927C145.24 150.705 145.492 149.512 145.698 148.353C145.796 147.758 145.847 147.156 145.851 146.553V144.777C145.851 144.265 145.826 143.734 145.775 143.171C145.724 142.608 145.645 142.088 145.546 141.582C145.19 139.393 144.575 137.255 143.714 135.211C143.402 134.727 143.122 134.224 142.874 133.704C142.612 133.168 142.278 132.67 141.881 132.225C141.576 131.756 141.216 131.269 140.812 130.757C140.408 130.245 139.998 129.767 139.59 129.306C139.349 129.096 139.12 128.872 138.903 128.636C138.662 128.371 138.378 128.15 138.063 127.98C137.822 127.766 137.593 127.54 137.376 127.301C137.135 127.038 136.851 126.818 136.536 126.651C136.012 126.193 135.45 125.781 134.856 125.418C134.245 125.039 133.634 124.688 133.024 124.36C130.371 122.879 127.551 121.719 124.624 120.905C121.478 120.084 118.253 119.603 115.004 119.468C113.271 119.505 111.59 119.559 109.962 119.632C108.334 119.705 106.655 119.86 104.926 120.099C104.563 120.168 104.189 120.153 103.832 120.056C103.475 119.959 103.144 119.783 102.865 119.54C102.586 119.298 102.366 118.995 102.22 118.655C102.075 118.315 102.009 117.946 102.026 117.577C102.037 116.768 102.335 115.99 102.866 115.379C103.397 114.769 104.127 114.366 104.926 114.243C106.45 114.031 107.977 113.742 109.507 113.375C111.037 113.008 112.564 112.615 114.088 112.196C117.053 111.19 119.958 110.014 122.788 108.675C124.202 107.965 125.578 107.181 126.911 106.328C128.232 105.477 129.558 104.544 130.881 103.54C133.352 101.683 135.652 99.6081 137.752 97.34C139.764 95.2243 141.555 92.9086 143.096 90.429C144.615 88.2029 145.943 85.8522 147.066 83.402C148.083 81.1011 148.901 78.717 149.509 76.276C149.712 75.1167 149.916 74.01 150.12 72.956C150.328 71.8645 150.481 70.763 150.578 69.656V66.424L150.12 63.248C149.935 62.2099 149.653 61.1912 149.28 60.205C148.901 59.2391 148.467 58.2959 147.98 57.38C147 55.4118 145.712 53.6134 144.163 52.053C143.346 51.343 142.534 50.605 141.72 49.847C140.83 49.0345 139.859 48.317 138.82 47.706C134.506 44.9894 129.753 43.0431 124.772 41.954C124.146 41.724 123.508 41.5303 122.86 41.374C122.198 41.2073 121.512 41.0707 120.801 40.964C120.088 40.864 119.401 40.746 118.737 40.633C118.073 40.52 117.388 40.412 116.678 40.305C113.929 39.9717 111.027 39.7587 107.971 39.666C106.546 39.6607 105.096 39.656 103.622 39.652C102.148 39.648 100.648 39.6517 99.1221 39.663C97.5921 39.773 96.0641 39.8823 94.5381 39.991C93.0121 40.0997 91.4851 40.2617 89.9571 40.477C83.7963 41.243 77.7155 42.5534 71.7861 44.393C65.7152 46.1502 59.9486 48.8251 54.6861 52.325C53.2718 53.1312 51.9194 54.0414 50.6401 55.048C49.3647 56.048 48.1177 57.0423 46.8991 58.031C46.3738 58.631 45.8128 59.1987 45.2191 59.731C44.6237 60.2626 44.0616 60.8303 43.5361 61.431C42.9397 62.0134 42.3797 62.6319 41.8591 63.283C41.3471 63.916 40.8381 64.53 40.3291 65.113C39.3985 66.3967 38.5331 67.7264 37.7361 69.097C36.9153 70.5038 36.2007 71.9699 35.5981 73.483C34.3629 76.2707 33.5895 79.2409 33.3081 82.277C33.3049 82.6167 33.2785 82.9559 33.2291 83.292C33.1772 83.6781 33.1518 84.0674 33.1531 84.457V85.384C33.2628 85.7257 33.3155 86.0832 33.3091 86.442C33.3024 87.1827 33.3525 87.9229 33.4591 88.656C33.5553 89.2895 33.7085 89.9131 33.9171 90.519C34.4644 93.1185 35.338 95.6385 36.5171 98.019C37.1163 99.145 37.7801 100.236 38.5051 101.285C39.204 102.311 39.9693 103.289 40.7961 104.215C41.5113 105.256 42.3892 106.175 43.3961 106.938C43.9021 107.382 44.3891 107.775 44.8471 108.123C45.3051 108.471 45.7861 108.816 46.2951 109.152C46.7637 109.572 47.2756 109.94 47.8221 110.252C48.3341 110.543 48.8401 110.857 49.3521 111.194C49.9504 111.417 50.5365 111.671 51.1081 111.955C51.6654 112.24 52.1987 112.5 52.7081 112.735C53.3187 112.956 53.9287 113.154 54.5381 113.329C55.1474 113.504 55.7591 113.701 56.3731 113.92C56.6209 114.007 56.8754 114.074 57.1341 114.12C57.4421 114.179 57.7481 114.244 58.0531 114.307C58.3412 114.431 58.6525 114.491 58.9661 114.485L60.0381 114.646C61.1447 114.854 62.1886 115.314 63.0889 115.991C63.9892 116.667 64.7218 117.541 65.2301 118.546C65.7845 119.595 66.1118 120.749 66.1908 121.933C66.2697 123.117 66.0984 124.304 65.6881 125.417C65.2854 126.59 64.6899 127.688 63.9261 128.665C63.1689 129.64 62.2668 130.494 61.2511 131.196C60.2627 131.891 59.1488 132.388 57.9711 132.658C56.7912 132.925 55.5678 132.937 54.3831 132.692C54.0678 132.705 53.7539 132.643 53.4671 132.511L53.3141 132.378L52.7031 132.313L52.3981 132.197L52.0931 132.09C51.9244 131.931 51.7114 131.826 51.4821 131.79C51.2521 131.756 51.0385 131.651 50.8711 131.49C50.4271 131.379 49.9924 131.234 49.5711 131.055C49.2121 130.899 48.8301 130.747 48.4261 130.591C47.6091 130.198 46.8201 129.791 46.0591 129.391C45.2981 128.991 44.5041 128.526 43.6891 128.022C42.9049 127.64 42.1637 127.175 41.4781 126.636C40.8114 126.11 40.1244 125.588 39.4171 125.069C37.9934 124.038 36.6639 122.882 35.4441 121.616C34.2295 120.346 33.0852 119.01 32.0161 117.615C30.9532 116.233 30.0073 114.765 29.1881 113.226C28.2732 111.713 27.5063 110.116 26.8981 108.456C26.48 107.667 26.1471 106.836 25.9051 105.976C25.6504 105.085 25.4214 104.191 25.2181 103.292C24.4062 99.741 24.1488 96.0857 24.4551 92.456C24.4543 91.5472 24.5054 90.639 24.6081 89.736C24.7081 88.851 24.8621 87.926 25.0661 86.976C25.1883 86.7855 25.2422 86.5591 25.2191 86.334L25.3751 86.009V85.698C25.3584 85.5602 25.3842 85.4207 25.4491 85.298C25.5154 85.1758 25.5419 85.036 25.5251 84.898L25.6781 84.259C25.8544 83.8198 25.9825 83.3628 26.0601 82.896C26.1384 82.4293 26.2665 81.9724 26.4421 81.533C27.6601 78.0891 29.1398 74.7433 30.8681 71.525C31.6827 69.9723 32.5744 68.4593 33.5431 66.986C34.5117 65.5127 35.5551 64.032 36.6731 62.544C37.1791 61.854 37.7124 61.163 38.2731 60.471C38.8337 59.779 39.4201 59.079 40.0321 58.371C40.6401 57.671 41.2541 56.994 41.8641 56.344C42.4741 55.694 43.0831 55.069 43.6941 54.466C46.2225 51.9467 48.9295 49.6133 51.7941 47.484C57.4503 43.2767 63.5423 39.6895 69.9651 36.784C73.1031 35.3251 76.314 34.0284 79.5851 32.899C82.8424 31.779 86.1001 30.7347 89.3581 29.766C90.9871 29.234 92.5901 28.776 94.1711 28.403C95.7521 28.03 97.4001 27.623 99.1341 27.173C100.862 26.831 102.542 26.52 104.173 26.24C105.804 25.96 107.483 25.7017 109.209 25.465C112.568 24.993 115.954 24.65 119.366 24.436C122.801 24.2193 126.248 24.2808 129.673 24.62C133.129 24.9302 136.552 25.5358 139.904 26.43C140.718 26.63 141.558 26.846 142.424 27.083C143.29 27.32 144.129 27.598 144.941 27.892C146.572 28.486 148.253 29.177 149.983 29.965C153.199 31.6238 156.22 33.6344 158.992 35.96C161.816 38.5128 164.281 41.436 166.321 44.65C168.464 48.058 170.014 51.8053 170.902 55.732C171.83 59.835 172.139 64.0535 171.821 68.248C171.61 70.3652 171.279 72.4686 170.828 74.548C170.377 76.6432 169.737 78.6932 168.916 80.673C168.128 82.6825 167.209 84.6387 166.167 86.529C165.151 88.366 164.03 90.1429 162.81 91.851C160.344 95.2026 157.528 98.2823 154.41 101.038C151.414 103.57 148.194 105.824 144.79 107.774C141.977 109.524 139.013 111.02 135.934 112.242L137.766 112.451C139.721 112.662 141.66 113.011 143.566 113.494C144.075 113.627 144.532 113.77 144.937 113.921C145.344 114.068 145.802 114.207 146.314 114.342C147.306 114.654 148.275 115.034 149.214 115.479C150.15 115.774 151.03 116.227 151.814 116.817C152.299 117.04 152.76 117.311 153.191 117.626C153.583 117.924 153.99 118.201 154.41 118.457C156.165 119.674 157.756 121.112 159.144 122.735C160.646 124.392 161.929 126.233 162.964 128.215C163.47 129.278 163.927 130.32 164.335 131.34C164.744 132.37 165.051 133.437 165.251 134.527C165.862 136.796 166.195 139.131 166.244 141.48C166.292 143.88 166.113 146.279 165.71 148.645C165.417 151.004 164.881 153.327 164.11 155.576C163.337 157.807 162.392 159.975 161.285 162.06C160.202 164.206 158.951 166.263 157.541 168.21C156.172 170.092 154.668 171.873 153.041 173.537C149.954 176.832 146.405 179.662 142.505 181.937C140.698 183.103 138.81 184.139 136.855 185.037C134.918 185.922 132.984 186.756 131.055 187.537C129.104 188.209 127.116 188.768 125.1 189.211C123.163 189.638 121.228 189.985 119.295 190.252C118.786 190.32 118.302 190.393 117.847 190.452C117.366 190.517 116.88 190.533 116.396 190.5L115.022 190.689L114.259 190.641L113.496 190.748C111.562 190.896 109.618 190.856 107.691 190.629C103.826 190.29 100.079 189.131 96.6971 187.229C95.1517 186.189 93.6728 185.053 92.2691 183.829C90.9384 182.539 89.761 181.099 88.7601 179.539C88.2451 178.79 87.7671 178.006 87.3071 177.198C86.8496 176.388 86.4664 175.538 86.1621 174.659L85.2461 172.012C85.076 171.581 84.9731 171.126 84.9411 170.663C84.8391 170.578 84.7881 170.329 84.7881 169.916L84.6351 169.628V169.17C84.5292 168.808 84.5085 168.426 84.5748 168.055C84.6411 167.683 84.7925 167.332 85.0171 167.029C85.4425 166.426 86.0626 165.988 86.7731 165.788C87.0676 165.637 87.3925 165.556 87.7233 165.549C88.0541 165.543 88.382 165.612 88.6821 165.751C89.1922 165.981 89.5998 166.391 89.8271 166.902L89.9801 167.502V167.655L90.1331 167.938C90.1291 167.979 90.1338 168.02 90.1469 168.059C90.16 168.098 90.1812 168.134 90.2091 168.164C90.2368 168.193 90.2579 168.228 90.271 168.266C90.2842 168.304 90.2889 168.345 90.2851 168.385C90.3735 168.548 90.45 168.717 90.5141 168.891C90.5713 169.071 90.6422 169.246 90.7261 169.415C90.9029 169.741 91.056 170.079 91.1841 170.427C91.3103 170.779 91.4635 171.12 91.6421 171.448C92.0491 172.11 92.4561 172.718 92.8661 173.28C93.2895 173.86 93.7473 174.415 94.2371 174.94C96.0136 177.097 98.3328 178.742 100.956 179.705C101.599 179.995 102.263 180.238 102.941 180.432C103.643 180.624 104.359 180.757 105.082 180.832C105.763 180.94 106.451 180.997 107.141 181.005C107.803 181.019 108.542 181.019 109.358 181.005C110.855 181.002 112.344 180.797 113.786 180.394L114.397 180.306L114.697 180.264L114.853 180.244L115.01 180.22ZM67.6711 189.43C67.2141 189.96 66.7297 190.466 66.2201 190.946C65.7082 191.42 65.2238 191.924 64.7691 192.453C64.2571 192.934 63.7237 193.396 63.1691 193.839C62.6061 194.274 62.0241 194.739 61.4131 195.239C59.0062 196.955 56.3888 198.355 53.6251 199.404C52.9606 199.693 52.2706 199.919 51.5641 200.08C50.8991 200.219 50.2121 200.394 49.5031 200.595L47.5181 200.875C47.1635 200.928 46.8028 200.925 46.4491 200.867L45.9911 200.929L45.8351 200.949L45.6851 200.974L45.5291 200.997C44.8161 200.989 44.1291 200.983 43.4701 200.969C42.8293 200.965 42.1903 200.902 41.5611 200.78C40.179 200.758 38.8205 200.419 37.5911 199.787C36.9334 199.6 36.2943 199.353 35.6821 199.049C35.1194 198.766 34.5331 198.463 33.9231 198.138C33.4144 197.694 32.9307 197.246 32.4721 196.795C32.0171 196.348 31.5301 195.901 31.0241 195.46C29.3475 193.551 28.0971 191.307 27.3561 188.877C26.7664 186.493 26.5096 184.039 26.5931 181.584C26.8121 179.125 27.3777 176.71 28.2731 174.41C28.4731 173.867 28.7061 173.327 28.9631 172.77C29.2201 172.213 29.4971 171.67 29.8001 171.113C30.429 170.082 31.1442 169.105 31.9381 168.195C32.0564 168.01 32.2135 167.852 32.3986 167.734C32.5836 167.615 32.7922 167.538 33.0099 167.508C33.2276 167.478 33.4493 167.495 33.6596 167.559C33.8699 167.623 34.0639 167.732 34.2281 167.878C34.4688 168.065 34.6433 168.324 34.7258 168.617C34.8082 168.91 34.7943 169.222 34.6861 169.507V169.665C34.4892 170.081 34.3357 170.517 34.2281 170.965C34.1054 171.458 33.9524 171.942 33.7701 172.416C33.7672 172.651 33.7417 172.886 33.6941 173.116C33.6464 173.349 33.621 173.585 33.6181 173.823C33.4895 174.228 33.4376 174.654 33.4651 175.078C33.352 176.817 33.5064 178.564 33.9231 180.256C34.1775 181.743 34.8082 183.14 35.7551 184.314C36.3876 185.464 37.3443 186.404 38.5061 187.015C38.8005 187.174 39.1068 187.31 39.4221 187.422C39.6994 187.522 39.9575 187.668 40.1851 187.855L42.0171 188.067C42.6296 188.101 43.244 188.068 43.8491 187.967L45.8311 187.693L45.9871 187.673V187.515L46.1401 187.492L46.2901 187.472L46.9041 187.384C47.0411 187.285 47.1954 187.212 47.3591 187.169C47.5241 187.126 47.6795 187.052 47.8171 186.951C48.1221 186.807 48.4311 186.663 48.7361 186.516C49.0411 186.369 49.3471 186.225 49.6491 186.078C50.1611 185.702 50.6671 185.323 51.1791 184.941C51.737 184.514 52.2488 184.03 52.7061 183.496C52.9094 183.261 53.1637 182.995 53.4691 182.696C53.7741 182.396 54.0261 182.128 54.2331 181.896C54.4331 181.562 54.6331 181.248 54.8441 180.963C55.0551 180.678 55.2441 180.363 55.4551 180.033C56.4233 178.64 57.2921 177.18 58.0551 175.664C58.2551 175.22 58.4551 174.807 58.6661 174.417C58.8771 174.027 59.0731 173.617 59.2771 173.178C59.4811 172.739 59.6591 172.33 59.8111 171.942C59.9631 171.554 60.1391 171.108 60.3451 170.562C60.9557 168.933 61.5664 167.152 62.1771 165.218C62.8871 163.374 63.4977 161.517 64.0091 159.647C64.5204 157.777 65.0294 155.88 65.5361 153.955C65.8414 152.991 66.1214 152.029 66.3761 151.068C66.6281 150.104 66.8571 149.151 67.0631 148.198C67.2691 147.245 67.4961 146.286 67.7501 145.325C68.0041 144.364 68.2311 143.36 68.4371 142.299C68.5391 141.773 68.6407 141.297 68.7421 140.871C68.8421 140.447 68.9421 139.971 69.0471 139.437C69.1521 138.903 69.2471 138.411 69.3521 137.93C69.4571 137.449 69.5521 136.952 69.6571 136.43L70.2681 133.413L70.8791 130.396L73.3221 118.189C73.8307 116.164 74.2887 114.147 74.6961 112.138C75.1034 110.129 75.5614 108.062 76.0701 105.938C76.5794 103.811 77.1127 101.707 77.6701 99.624C78.2274 97.5413 78.8637 95.4223 79.5791 93.267C80.2917 91.115 81.0297 88.9573 81.7931 86.794C82.5564 84.6307 83.4471 82.4513 84.4651 80.256C84.7716 79.7841 85.0276 79.2814 85.2291 78.756C85.5051 78.1844 85.8108 77.6276 86.1451 77.088C86.3252 76.7982 86.4785 76.4926 86.6031 76.175C86.7031 75.909 86.8031 75.663 86.9081 75.44C87.1252 75.1857 87.305 74.9019 87.4421 74.597C87.5775 74.2897 87.7575 74.004 87.9761 73.749L88.8921 72.236C89.1674 71.625 89.5272 71.0558 89.9611 70.545C90.2523 70.0112 90.5843 69.5007 90.9541 69.018C91.3101 68.56 91.6921 68.042 92.0991 67.471C92.6077 66.8883 93.0411 66.3653 93.3991 65.902C93.796 65.3993 94.2306 64.9276 94.6991 64.491C95.2081 63.906 95.6661 63.408 96.0731 62.991C96.4801 62.574 96.9381 62.129 97.4471 61.645C99.3758 59.9421 101.416 58.3702 103.555 56.94C105.617 55.6181 107.821 54.5336 110.126 53.707C112.309 52.9297 114.559 52.3589 116.848 52.002C117.167 51.9448 117.495 51.9542 117.81 52.0296C118.125 52.105 118.421 52.2447 118.68 52.44C118.931 52.6367 119.132 52.8908 119.265 53.1811C119.398 53.4713 119.459 53.7892 119.443 54.108C119.45 54.5482 119.357 54.9842 119.172 55.3836C118.987 55.7831 118.714 56.1356 118.374 56.415C117.557 57.145 116.774 57.849 116.004 58.515C115.234 59.181 114.452 59.886 113.64 60.615C112.314 62.0343 111.041 63.4973 109.82 65.004C107.772 67.8796 106.032 70.9633 104.631 74.204C103.917 75.8433 103.305 77.5252 102.799 79.24C102.287 80.9567 101.777 82.7233 101.269 84.54C100.761 86.3567 100.328 88.2153 99.9691 90.116C99.6131 92.016 99.2314 93.919 98.8241 95.825C98.5187 97.8217 98.1888 99.7937 97.8341 101.741C97.4794 103.688 97.0967 105.67 96.6861 107.685C96.2787 109.693 95.8971 111.7 95.5411 113.705C95.1851 115.71 94.7517 117.775 94.2411 119.898L92.8701 126.098L91.4931 132.305C91.3416 133.341 91.0846 134.36 90.7261 135.344L89.9631 138.534C89.8611 139.067 89.7594 139.596 89.6581 140.12C89.5507 140.665 89.3975 141.201 89.2001 141.72C89.0025 142.241 88.8503 142.779 88.7451 143.326C88.6353 143.874 88.4821 144.412 88.2871 144.935C87.7724 147.062 87.1617 149.149 86.4551 151.198C86.1471 152.27 85.8407 153.315 85.5361 154.334C85.2314 155.353 84.8751 156.403 84.4671 157.484L82.1771 163.821C81.6684 164.918 81.2104 166.01 80.8031 167.095C80.405 168.161 79.9452 169.203 79.4261 170.215C78.4936 172.434 77.4225 174.592 76.2191 176.676C75.7302 177.803 75.1157 178.871 74.3871 179.86C73.831 180.991 73.1662 182.065 72.4021 183.067C72.1005 183.618 71.769 184.152 71.4091 184.667C71.0501 185.182 70.6711 185.725 70.2641 186.296C69.7521 186.884 69.3201 187.404 68.9641 187.863C68.6081 188.322 68.1751 188.844 67.6641 189.43" fill="white"/>
<path d="M247.628 104.821C247.808 104.905 247.965 105.034 248.082 105.195C248.199 105.357 248.273 105.545 248.298 105.743C248.374 106.164 248.335 106.598 248.185 106.999C247.961 107.504 247.7 107.991 247.405 108.458L246.738 110.013C246.515 110.494 246.178 111.178 245.738 112.069C245.298 112.96 244.918 113.681 244.624 114.246C244.101 115.219 243.598 116.19 243.117 117.159C242.631 118.126 242.133 119.136 241.617 120.185C241.02 121.166 240.444 122.147 239.889 123.126C239.329 124.102 238.755 125.046 238.158 125.954C237.564 126.938 236.951 127.925 236.32 128.915C235.689 129.902 235.036 130.855 234.369 131.771C233.996 132.271 233.645 132.758 233.311 133.213C232.977 133.668 232.621 134.155 232.251 134.658C231.88 135.082 231.471 135.533 231.024 136.01C230.58 136.482 230.136 136.938 229.686 137.379C228.745 138.372 227.74 139.301 226.677 140.161C226.377 140.35 226.077 140.561 225.783 140.792C225.468 141.034 225.133 141.25 224.783 141.437C224.024 141.902 223.196 142.246 222.331 142.455L222.11 142.596L221.997 142.613L221.663 142.661C221.562 142.661 221.464 142.693 221.383 142.754C221.303 142.816 221.206 142.851 221.106 142.854L219.876 143.024C218.989 143.15 218.09 143.161 217.201 143.058C216.231 142.933 215.288 142.646 214.413 142.21C213.559 141.848 212.798 141.299 212.185 140.604C211.483 140.089 210.941 139.385 210.624 138.574C210.162 137.939 209.823 137.224 209.624 136.465C209.333 135.847 209.126 135.193 209.01 134.52C208.9 133.861 208.77 133.204 208.62 132.549L208.286 128.881V128.652C207.916 129.452 207.523 130.252 207.115 131.064C206.707 131.876 206.278 132.684 205.831 133.493C205.46 134.146 205.052 134.822 204.607 135.52C204.162 136.218 203.716 136.899 203.269 137.564C202.749 138.234 202.229 138.869 201.708 139.47C201.188 140.064 200.631 140.67 200.037 141.28C198.811 142.598 197.381 143.709 195.801 144.571C194.17 145.564 192.397 146.302 190.544 146.759C190.31 146.781 190.083 146.851 189.877 146.965L189.767 146.982L189.654 146.996L189.541 147.013L189.207 147.061L187.872 147.245C186.835 147.401 185.78 147.397 184.744 147.232C183.647 147.167 182.58 146.854 181.622 146.316C180.621 145.812 179.716 145.137 178.947 144.322C178.181 143.537 177.542 142.638 177.052 141.658C176.824 141.23 176.619 140.79 176.438 140.34C176.254 139.873 176.087 139.429 175.938 139C175.657 138.13 175.453 137.237 175.327 136.331C175.214 135.483 175.12 134.65 175.047 133.831V131.36C175.047 130.534 175.087 129.703 175.16 128.869C175.234 128.106 175.29 127.35 175.327 126.593C175.366 125.824 175.458 125.059 175.604 124.303C175.68 123.918 175.737 123.551 175.771 123.211C175.82 122.832 175.914 122.46 176.051 122.103C176.201 121.181 176.351 120.412 176.498 119.79C176.648 119.095 176.796 118.38 176.942 117.647C177.095 116.912 177.242 116.196 177.389 115.498C177.612 114.794 177.817 114.072 178.003 113.332C178.187 112.594 178.393 111.873 178.614 111.163C178.764 110.47 178.951 109.763 179.174 109.063C179.397 108.363 179.618 107.652 179.844 106.948C180.065 106.317 180.305 105.642 180.568 104.932C180.831 104.222 181.068 103.512 181.295 102.806C181.522 102.1 181.756 101.406 182.016 100.736C182.276 100.066 182.516 99.37 182.743 98.663C183.337 97.309 183.894 95.951 184.414 94.602C184.934 93.253 185.491 91.902 186.085 90.544C186.324 89.8761 186.623 89.2315 186.979 88.618C187.229 87.9185 187.528 87.2372 187.873 86.579C187.999 86.2314 188.147 85.8923 188.317 85.564C188.485 85.2312 188.634 84.8894 188.764 84.54L189.321 83.562L189.542 83.084L189.768 82.493C190.803 80.3837 192.564 78.7182 194.728 77.802C195.709 77.3385 196.777 77.0861 197.863 77.0613C198.948 77.0365 200.026 77.2398 201.028 77.658C201.965 78.0263 202.804 78.6059 203.481 79.3517C204.157 80.0976 204.653 80.9895 204.928 81.958C205.595 84.0751 205.395 86.3705 204.371 88.34L204.261 88.47L203.481 90.152L202.587 92.075L201.696 93.89L200.802 95.7C200.208 96.987 199.648 98.225 199.134 99.424C198.62 100.623 198.054 101.864 197.46 103.148C196.346 105.628 195.268 108.104 194.225 110.576C193.182 113.048 192.216 115.548 191.325 118.076C191.104 118.707 190.898 119.315 190.714 119.906C190.53 120.497 190.321 121.106 190.1 121.738C189.963 122.015 189.868 122.311 189.82 122.617C189.77 122.924 189.676 123.222 189.54 123.502C189.405 123.781 189.312 124.078 189.263 124.384C189.212 124.69 189.117 124.987 188.983 125.266C188.833 125.885 188.706 126.485 188.596 127.066C188.486 127.647 188.353 128.211 188.203 128.754C188.063 129.327 187.952 129.906 187.872 130.49C187.793 131.027 187.719 131.565 187.646 132.096C187.494 132.953 187.494 133.829 187.646 134.686C187.631 135.023 187.669 135.361 187.759 135.686V136.249C187.832 136.382 187.871 136.532 187.872 136.684C187.989 136.876 188.139 137.045 188.316 137.184C188.411 137.297 188.531 137.387 188.666 137.446C188.801 137.505 188.948 137.533 189.096 137.526C189.183 137.568 189.277 137.593 189.373 137.6C189.469 137.611 189.564 137.635 189.653 137.674L189.766 137.657L189.876 137.646L189.986 137.629V137.742L190.32 137.697C191.237 137.722 192.149 137.557 192.998 137.211C194.009 136.929 194.956 136.454 195.786 135.811C196.23 135.528 196.694 135.197 197.177 134.83C197.667 134.46 198.133 134.06 198.571 133.63C199.018 133.189 199.465 132.736 199.909 132.259C200.368 131.763 200.779 131.225 201.137 130.652C201.974 129.611 202.755 128.526 203.478 127.403C204.222 126.246 204.928 125.097 205.596 123.956C206.263 122.737 206.88 121.507 207.434 120.266C207.988 119.025 208.568 117.766 209.162 116.48C209.162 116.406 209.182 116.364 209.221 116.358C209.26 116.352 209.275 116.313 209.275 116.236C209.422 115.47 209.555 114.736 209.665 114.044C209.775 113.352 209.908 112.622 210.055 111.853C210.426 109.548 210.872 107.385 211.393 105.363C211.616 104.283 211.858 103.216 212.117 102.163C212.377 101.111 212.657 100.045 212.954 98.951C213.251 97.857 213.548 96.785 213.845 95.73C214.142 94.675 214.439 93.604 214.739 92.509L216.747 86.152C216.894 85.68 217.061 85.191 217.247 84.676C217.433 84.161 217.598 83.633 217.747 83.084L218.304 81.43C218.449 81.1958 218.543 80.9339 218.581 80.661C218.62 80.388 218.715 80.126 218.861 79.892C219.638 77.8023 221.115 76.0459 223.04 74.921C223.913 74.3554 224.896 73.9793 225.923 73.817C226.951 73.6548 228.002 73.71 229.007 73.979C229.957 74.2153 230.842 74.6631 231.595 75.2888C232.348 75.9146 232.95 76.7022 233.356 77.593C233.797 78.5297 234.035 79.5493 234.053 80.5845C234.072 81.6198 233.87 82.6472 233.463 83.599C233.4 83.6642 233.363 83.749 233.356 83.839L233.243 83.856L232.686 85.284L232.129 86.712C231.906 87.272 231.702 87.787 231.515 88.262C231.328 88.737 231.162 89.209 231.015 89.682C230.642 90.632 230.252 91.6067 229.847 92.606C229.442 93.6053 229.051 94.579 228.676 95.527C228.3 96.551 227.952 97.557 227.613 98.541C227.274 99.525 226.929 100.498 226.555 101.448C226.184 102.475 225.851 103.478 225.555 104.457C225.259 105.436 224.926 106.403 224.555 107.357C224.184 108.384 223.869 109.384 223.608 110.357C223.346 111.337 223.03 112.302 222.661 113.247C222.361 114.265 222.107 115.258 221.881 116.225C221.655 117.192 221.434 118.148 221.214 119.078C220.917 120.093 220.676 121.065 220.49 121.993C220.304 122.921 220.137 123.845 219.99 124.764L219.656 127.513C219.656 127.889 219.636 128.288 219.597 128.703C219.558 129.118 219.543 129.515 219.543 129.891C219.612 130.24 219.645 130.596 219.644 130.952C219.641 131.269 219.679 131.584 219.757 131.891C219.828 132.106 219.864 132.33 219.864 132.556C219.867 132.596 219.878 132.636 219.898 132.671C219.917 132.707 219.944 132.738 219.977 132.762V132.875C220.051 132.94 220.051 132.975 219.977 132.988V133.101C220.113 133.174 220.272 133.191 220.421 133.149C220.421 133.225 220.497 133.249 220.647 133.231L220.868 133.2L220.981 133.183L221.538 133.107C221.673 133.017 221.825 132.958 221.985 132.932C222.163 132.894 222.321 132.792 222.429 132.646C222.729 132.454 223.043 132.261 223.376 132.063C223.742 131.846 224.096 131.609 224.436 131.353C224.806 131.002 225.163 130.686 225.496 130.42C225.877 130.1 226.231 129.749 226.554 129.371C226.927 129.02 227.295 128.684 227.671 128.371C228.07 128.03 228.441 127.659 228.782 127.26C229.452 126.491 230.14 125.72 230.846 124.947C231.546 124.172 232.24 123.366 232.91 122.521C233.58 121.676 234.248 120.836 234.91 119.99C235.572 119.144 236.248 118.308 236.918 117.462C237.512 116.551 238.142 115.678 238.813 114.832C239.484 113.986 240.113 113.116 240.713 112.205C241.207 111.592 241.637 110.928 241.994 110.226C242.35 109.523 242.78 108.86 243.275 108.247L244.169 106.887C244.336 106.691 244.485 106.481 244.616 106.259C244.763 106.016 244.91 105.767 245.06 105.524C245.174 105.301 245.333 105.105 245.527 104.947C245.722 104.79 245.947 104.674 246.188 104.608C246.429 104.542 246.682 104.528 246.929 104.565C247.177 104.602 247.414 104.69 247.625 104.824" fill="white"/>
<path d="M302.143 97.011C303.107 97.401 303.334 98.083 302.813 99.055V99.168C301.919 100.944 301.028 102.7 300.138 104.436C299.248 106.172 298.355 107.892 297.46 109.597C296.496 111.378 295.526 113.129 294.56 114.837C293.594 116.545 292.589 118.264 291.548 119.981C291.398 120.23 291.268 120.456 291.158 120.66C291.048 120.86 290.917 121.048 290.768 121.22C290.618 121.466 290.468 121.695 290.321 121.899C290.174 122.103 290.021 122.334 289.877 122.58C289.577 123.001 289.3 123.411 289.04 123.824C288.755 124.266 288.437 124.687 288.09 125.082C287.795 125.498 287.48 125.898 287.145 126.282C286.811 126.667 286.455 127.071 286.085 127.501C285.432 128.403 284.642 129.196 283.744 129.854C282.915 130.753 281.933 131.498 280.844 132.054C280.252 132.413 279.615 132.691 278.949 132.88C278.233 133.13 277.475 133.236 276.718 133.191C275.961 133.165 275.212 133.041 274.487 132.823C273.781 132.672 273.127 132.338 272.592 131.853C272.073 131.473 271.588 131.05 271.141 130.589C271.007 130.329 270.839 130.087 270.641 129.871C270.443 129.655 270.275 129.413 270.141 129.153C269.574 128.225 269.124 127.229 268.803 126.19C268.653 125.684 268.503 125.2 268.356 124.731C268.209 124.262 268.056 123.738 267.909 123.162C267.766 122.679 267.672 122.182 267.629 121.68C267.592 121.199 267.536 120.699 267.462 120.18L267.128 117.185C266.908 113.153 267.019 109.11 267.462 105.096C267.762 102.803 268.208 100.339 268.802 97.704C267.265 98.1419 265.699 98.4727 264.116 98.694C261.695 99.1801 259.23 99.4104 256.761 99.381C254.893 99.2988 253.031 99.1072 251.185 98.807C251.118 98.8809 251.062 98.9637 251.018 99.053C250.974 99.1435 250.918 99.2273 250.851 99.302C250.472 100.353 249.987 101.363 249.403 102.316C249.19 102.851 248.947 103.375 248.676 103.883C248.416 104.37 248.137 104.859 247.839 105.351C247.618 105.829 247.375 106.312 247.115 106.802C246.855 107.292 246.578 107.778 246.278 108.27C246.131 108.516 245.984 108.762 245.831 109.005C245.678 109.248 245.537 109.497 245.387 109.746C245.123 110.258 244.824 110.751 244.493 111.222C244.421 111.379 244.313 111.516 244.178 111.622C244.043 111.728 243.884 111.801 243.715 111.833C243.386 111.926 243.037 111.916 242.715 111.805C242.457 111.607 242.273 111.328 242.192 111.012C242.111 110.697 242.138 110.364 242.268 110.066C242.555 109.596 242.816 109.11 243.048 108.61C243.271 108.126 243.492 107.646 243.718 107.165C243.944 106.684 244.179 106.198 244.442 105.712C244.705 105.226 244.942 104.742 245.169 104.261C245.39 103.704 245.613 103.184 245.834 102.703C246.055 102.222 246.281 101.742 246.504 101.261C246.95 100.223 247.359 99.2287 247.731 98.278C247.794 98.2133 247.833 98.1284 247.841 98.038C246.877 97.648 245.907 97.221 244.941 96.751C243.952 96.2701 243.018 95.6833 242.156 95.001C241.02 94.2358 240.037 93.2664 239.256 92.142C238.344 90.9461 237.665 89.5891 237.256 88.142C236.808 86.5834 236.693 84.9479 236.919 83.342C237.078 81.5647 237.61 79.8409 238.48 78.283C238.773 77.9337 239.034 77.5589 239.26 77.163C239.399 77.001 239.549 76.849 239.71 76.708C239.867 76.5637 240.016 76.4108 240.157 76.25C240.434 75.9272 240.731 75.6229 241.048 75.339C241.344 75.0723 241.678 74.8 242.048 74.522C242.665 74.0814 243.338 73.723 244.048 73.456C244.718 73.21 245.386 72.97 246.056 72.726L247.056 72.587L247.5 72.525L247.613 72.508L247.723 72.494L247.946 72.466L248.837 72.339C249.169 72.2991 249.503 72.2898 249.837 72.311C250.133 72.3458 250.432 72.3608 250.731 72.356C251.069 72.3591 251.405 72.4058 251.731 72.495C252.052 72.5806 252.368 72.6882 252.675 72.817C252.935 72.933 253.249 73.074 253.625 73.247C253.909 73.4227 254.171 73.6326 254.405 73.872C254.628 74.104 254.849 74.356 255.072 74.621C255.28 74.8706 255.449 75.1509 255.572 75.452C255.682 75.738 255.812 76.052 255.962 76.411C256.105 76.6793 256.199 76.9713 256.239 77.273C256.276 77.5679 256.332 77.8599 256.409 78.147C256.404 78.4656 256.422 78.7841 256.463 79.1C256.501 79.3763 256.52 79.655 256.52 79.934C256.523 80.2572 256.503 80.5803 256.463 80.901C256.424 81.182 256.406 81.4654 256.409 81.749C256.337 82.0301 256.299 82.3188 256.296 82.609C256.292 82.8997 256.254 83.189 256.183 83.471C256.109 83.7823 255.998 84.3233 255.849 85.094L258.077 84.783C261.558 84.2711 264.966 83.3424 268.226 82.017C269.136 81.7395 270.029 81.409 270.901 81.027C271.791 80.6397 272.683 80.271 273.576 79.921C274.467 79.5 275.341 79.076 276.197 78.657C277.053 78.238 277.962 77.812 278.929 77.376L281.491 76.457C282.365 76.0977 283.308 75.9344 284.252 75.9784C285.196 76.0225 286.12 76.2729 286.957 76.712C287.786 77.1316 288.508 77.7349 289.068 78.476C289.628 79.217 290.011 80.0762 290.189 80.988C290.485 82.3697 290.388 83.8066 289.909 85.136C289.447 86.4807 288.663 87.6915 287.624 88.662C286.546 89.7475 285.541 90.9026 284.615 92.12C284.168 92.782 283.721 93.4627 283.275 94.162C282.828 94.862 282.421 95.576 282.048 96.303C280.405 99.4131 279.026 102.655 277.925 105.996C277.699 106.853 277.478 107.69 277.255 108.51C277.032 109.33 276.808 110.167 276.588 111.021C276.512 111.408 276.438 111.83 276.365 112.293C276.292 112.756 276.215 113.175 276.142 113.56C276.062 113.977 276.007 114.398 275.975 114.821C275.941 115.244 275.884 115.665 275.805 116.082C275.659 116.91 275.585 117.749 275.584 118.59V121.078C275.657 121.443 275.694 121.814 275.694 122.186C275.694 122.559 275.73 122.931 275.804 123.297C275.881 123.974 276.07 124.633 276.364 125.248C276.515 125.701 276.74 126.125 277.031 126.504C277.116 126.658 277.231 126.794 277.368 126.904C277.442 126.966 277.495 127.004 277.535 126.994C277.575 126.984 277.626 127.019 277.699 127.079C277.775 127.07 277.853 127.08 277.925 127.107C277.995 127.133 278.071 127.142 278.146 127.132C278.281 127.115 278.414 127.078 278.539 127.022C278.662 126.964 278.794 126.925 278.929 126.909C279.241 126.788 279.54 126.633 279.82 126.448C280.12 126.259 280.448 126.063 280.82 125.857C281.558 125.408 282.231 124.86 282.82 124.228C283.504 123.671 284.138 123.055 284.715 122.387L286.615 120.21C286.773 120.029 286.921 119.839 287.059 119.642C287.212 119.436 287.359 119.242 287.506 119.074C287.775 118.674 288.074 118.295 288.4 117.94C290.703 114.873 292.788 111.648 294.641 108.289C295.161 107.469 295.644 106.651 296.092 105.835C296.539 105.019 296.985 104.17 297.43 103.287C297.876 102.399 298.322 101.53 298.768 100.68C299.218 99.829 299.625 98.966 299.998 98.09C300.078 97.8867 300.198 97.7015 300.35 97.5451C300.503 97.3886 300.685 97.2642 300.886 97.179C301.261 96.9756 301.696 96.9145 302.113 97.007M244.95 80.319C245.084 80.7964 245.312 81.2424 245.62 81.631C245.917 82.0117 246.252 82.3611 246.62 82.674L247.958 83.503C248.225 83.5994 248.485 83.7126 248.738 83.842C248.989 83.9753 249.25 84.0896 249.518 84.184C249.974 84.4273 250.461 84.6063 250.966 84.716C251.518 84.8371 252.077 84.9276 252.64 84.987C252.787 84.218 252.9 83.675 252.974 83.367C252.972 83.1009 252.991 82.8351 253.031 82.572C253.067 82.3458 253.085 82.1171 253.085 81.888C253.162 81.6459 253.2 81.3931 253.198 81.139V80.407C253.241 79.5793 253.089 78.7531 252.754 77.995C252.595 77.7025 252.408 77.4267 252.194 77.172C251.997 76.9812 251.771 76.8235 251.524 76.705C250.846 76.4609 250.115 76.4062 249.409 76.547C249.219 76.5775 249.032 76.623 248.849 76.683C248.631 76.7494 248.408 76.7986 248.182 76.83V76.938L248.069 76.955L247.959 76.969L247.846 76.983C247.758 77.0038 247.679 77.0547 247.625 77.127C247.508 77.1401 247.394 77.174 247.289 77.227C247.224 77.2755 247.148 77.3059 247.068 77.315C246.401 77.6663 245.827 78.1712 245.394 78.788C245.183 79.0153 245.064 79.3123 245.06 79.622C244.975 79.8418 244.937 80.0767 244.947 80.312" fill="white"/>
<path d="M325.334 151.864C324.817 152.91 324.293 153.942 323.773 154.955C323.253 155.968 322.696 156.997 322.102 158.055C321.508 159.113 320.892 160.155 320.261 161.18C319.63 162.205 318.943 163.222 318.2 164.225C317.837 164.787 317.446 165.331 317.029 165.854C316.622 166.354 316.229 166.864 315.858 167.367C315.411 167.876 314.965 168.388 314.52 168.902C314.075 169.416 313.591 169.933 313.069 170.454C312.549 170.901 312.011 171.37 311.454 171.862C310.894 172.348 310.32 172.823 309.723 173.284L309.502 173.425L309.276 173.682C309.175 173.755 309.062 173.808 308.942 173.84C308.853 173.859 308.774 173.91 308.721 173.984C308.572 174.152 308.379 174.277 308.164 174.343C307.948 174.405 307.754 174.529 307.607 174.699C307.234 174.899 306.86 175.086 306.49 175.253C306.12 175.42 305.746 175.598 305.376 175.799C304.556 176.065 303.776 176.299 303.035 176.52C302.272 176.738 301.486 176.866 300.694 176.902C299.138 177.131 297.554 177.085 296.014 176.766C294.471 176.503 292.993 175.944 291.662 175.12C290.247 174.262 289.061 173.075 288.206 171.659C287.693 170.993 287.28 170.254 286.982 169.468C286.689 168.694 286.463 167.897 286.309 167.084C286.083 165.47 286.121 163.83 286.422 162.229C286.596 160.744 286.971 159.291 287.539 157.908C288.046 156.587 288.641 155.301 289.32 154.059C289.458 153.758 289.625 153.47 289.82 153.202C290.015 152.932 290.183 152.643 290.32 152.34C290.524 152.064 290.711 151.776 290.88 151.478L291.101 151.11L291.214 150.867L291.324 150.74L291.434 150.723C291.657 150.395 291.864 150.104 292.05 149.849C292.236 149.594 292.437 149.309 292.661 148.978C292.884 148.721 293.108 148.466 293.328 148.209C293.533 147.972 293.759 147.752 294.001 147.553C294.849 146.558 295.781 145.636 296.786 144.799C297.233 144.364 297.677 143.962 298.124 143.599C298.571 143.236 299.018 142.875 299.462 142.513C300.353 141.713 301.264 140.967 302.196 140.276C303.128 139.585 304.038 138.914 304.925 138.263C305.819 137.536 306.725 136.869 307.657 136.252C308.589 135.635 309.498 134.996 310.389 134.352C312.173 133.127 313.994 131.899 315.852 130.667L320.871 127.267C321.018 126.721 321.185 126.167 321.371 125.621C321.557 125.075 321.722 124.521 321.871 123.975C323.132 119.821 324.247 115.801 325.216 111.915C325.507 111.071 325.748 110.211 325.94 109.339C326.124 108.488 326.33 107.634 326.554 106.777C326.331 107.258 326.087 107.727 325.83 108.177C325.573 108.627 325.29 109.059 324.993 109.477C324.294 110.689 323.512 111.852 322.652 112.955C322.208 113.464 321.761 113.998 321.314 114.547C320.838 115.129 320.316 115.672 319.753 116.17C318.642 117.268 317.408 118.233 316.074 119.046C315.701 119.246 315.33 119.433 314.957 119.595C314.584 119.757 314.216 119.943 313.846 120.146C313.494 120.327 313.118 120.455 312.729 120.525C312.612 120.535 312.498 120.569 312.395 120.625C312.292 120.685 312.177 120.721 312.059 120.732L311.725 120.774L311.615 120.791L311.505 120.808C311.07 120.942 310.62 121.023 310.165 121.048C309.718 121.076 309.271 121.079 308.828 121.068C308.455 121.043 308.028 120.989 307.544 120.907C307.06 120.825 306.6 120.74 306.153 120.65C305.783 120.477 305.39 120.288 304.982 120.082C304.577 119.881 304.186 119.653 303.811 119.4C303.102 118.857 302.464 118.228 301.911 117.528C301.416 116.888 301.004 116.188 300.687 115.444C300.537 115.091 300.41 114.751 300.297 114.429C300.184 114.107 300.054 113.773 299.907 113.417C299.504 112.019 299.243 110.583 299.127 109.133C299.053 108.465 299.017 107.794 299.017 107.122V105.099C299.017 104.423 299.034 103.745 299.074 103.066C299.114 102.387 299.167 101.74 299.241 101.129C299.388 99.831 299.592 98.5263 299.852 97.215C300.112 95.9037 300.428 94.584 300.799 93.256C301.172 91.927 301.543 90.64 301.913 89.388C302.283 88.136 302.733 86.874 303.253 85.602C303.704 84.3196 304.225 83.063 304.814 81.838C305.408 80.5907 306.003 79.3623 306.598 78.153C307.971 75.5419 309.575 73.0587 311.391 70.733C312.282 69.633 313.285 68.4803 314.4 67.275C315.465 66.0769 316.662 65.0034 317.969 64.075C318.638 63.5315 319.345 63.0382 320.087 62.599C320.831 62.1577 321.611 61.691 322.428 61.199C324.051 60.3911 325.777 59.8107 327.558 59.474C329.359 59.1447 331.19 59.0026 333.021 59.05C334.683 59.2268 336.324 59.564 337.921 60.057C338.665 60.3283 339.39 60.6213 340.096 60.936C340.769 61.2316 341.42 61.5727 342.047 61.957C342.42 62.206 342.734 62.426 342.997 62.613C343.26 62.8 343.534 62.989 343.834 63.173C344.151 63.3659 344.449 63.5875 344.725 63.835L345.059 64.129L345.503 64.406C346.264 65.0135 346.881 65.7832 347.308 66.659C347.734 67.5349 347.96 68.4948 347.969 69.469C348.036 71.5835 347.321 73.6485 345.961 75.269C344.592 76.9058 342.702 78.0228 340.608 78.433C339.657 78.65 338.67 78.6434 337.722 78.4138C336.775 78.1842 335.894 77.7379 335.148 77.11L334.701 76.723L334.588 76.517L334.481 76.417L334.255 76.217L333.811 75.832C333.661 75.705 333.511 75.575 333.364 75.442C333.217 75.309 333.064 75.185 332.917 75.055C332.617 74.874 332.34 74.685 332.08 74.498C331.539 74.1896 330.982 73.9092 330.412 73.658C330.159 73.5896 329.916 73.493 329.685 73.37C329.385 73.336 329.128 73.316 328.902 73.305C328.642 73.3029 328.381 73.321 328.124 73.359C327.551 73.3746 326.985 73.4925 326.453 73.707C325.798 73.9699 325.165 74.2829 324.558 74.643C323.823 75.0835 323.131 75.5928 322.492 76.164C321.785 76.7887 321.098 77.4467 320.431 78.138C318.967 79.6879 317.661 81.3788 316.531 83.186C315.934 84.0967 315.376 85.0187 314.857 85.952C314.338 86.8853 313.817 87.877 313.296 88.927C312.776 89.8997 312.293 90.9053 311.848 91.944C311.401 92.979 310.991 94.014 310.621 95.044C310.248 96.144 309.914 97.2033 309.621 98.222C309.321 99.24 309.061 100.286 308.838 101.372C308.403 103.361 308.179 105.39 308.171 107.426V108.778C308.169 109.228 308.244 109.674 308.392 110.099C308.469 110.775 308.657 111.433 308.949 112.047C309.035 112.261 309.193 112.437 309.396 112.547C309.427 112.647 309.485 112.737 309.564 112.805C309.643 112.874 309.74 112.92 309.843 112.937C309.919 113.001 310.008 113.048 310.105 113.073C310.201 113.098 310.302 113.1 310.4 113.081C310.684 113.189 310.99 113.224 311.291 113.181L311.399 113.164L311.512 113.15L311.622 113.133L311.845 113.102L312.289 113.04C312.482 112.943 312.689 112.876 312.903 112.84C313.081 112.817 313.252 112.754 313.403 112.656C313.774 112.456 314.164 112.234 314.574 111.989C314.981 111.746 315.408 111.477 315.855 111.189C316.225 110.912 316.619 110.595 317.026 110.239C317.441 109.874 317.832 109.481 318.197 109.065C318.567 108.635 318.941 108.208 319.311 107.778C319.681 107.348 320.055 106.93 320.428 106.497C321.887 104.635 323.227 102.683 324.441 100.652C325.035 99.5947 325.611 98.557 326.169 97.539C326.727 96.521 327.303 95.4473 327.897 94.318C328.197 93.75 328.474 93.207 328.731 92.684C328.988 92.161 329.237 91.618 329.458 91.058C329.605 90.741 329.735 90.458 329.848 90.215C329.961 89.972 330.088 89.698 330.241 89.378L330.572 88.541L330.795 88.173L330.905 87.706L331.131 87.225C331.642 85.1404 332.863 83.2987 334.584 82.016C336.213 80.69 338.289 80.0384 340.384 80.195C341.368 80.2268 342.331 80.4917 343.194 80.968C344.056 81.4443 344.793 82.1185 345.344 82.935C345.915 83.7676 346.304 84.711 346.487 85.7038C346.669 86.6966 346.641 87.7168 346.404 88.698C346.405 88.7141 346.404 88.7303 346.399 88.7457C346.394 88.7611 346.386 88.7753 346.376 88.7875C346.365 88.7997 346.352 88.8096 346.337 88.8165C346.323 88.8235 346.307 88.8274 346.291 88.828L345.959 90.464L345.625 92.084C345.475 92.633 345.345 93.156 345.235 93.659C345.125 94.162 344.995 94.688 344.845 95.234C344.548 96.328 344.27 97.3987 344.011 98.446C343.752 99.4933 343.471 100.563 343.169 101.654C342.572 103.69 342.014 105.662 341.495 107.57C340.976 109.478 340.419 111.452 339.824 113.491C340.176 113.155 340.548 112.839 340.938 112.547C341.327 112.254 341.699 111.939 342.052 111.603C342.869 110.89 343.687 110.176 344.504 109.46C345.321 108.744 346.139 108.03 346.958 107.319C347.761 106.618 348.525 105.873 349.246 105.088C349.95 104.313 350.674 103.537 351.418 102.758C352.905 101.2 354.317 99.5777 355.654 97.891C356.343 97.098 356.976 96.258 357.549 95.377C358.155 94.6216 358.714 93.8294 359.223 93.005C359.964 91.851 360.487 91.065 360.784 90.649V90.536C360.997 90.2142 361.312 89.9725 361.678 89.849C362.044 89.7254 362.444 89.7509 362.792 89.92C362.943 89.9969 363.077 90.1052 363.183 90.2378C363.289 90.3704 363.366 90.5242 363.408 90.6888C363.45 90.8535 363.457 91.0252 363.427 91.1925C363.397 91.3599 363.332 91.5189 363.236 91.659C362.936 92.2867 362.602 92.8976 362.236 93.489C361.792 94.227 361.346 94.984 360.898 95.76C360.454 96.532 360.007 97.273 359.56 97.968C359.113 98.663 358.743 99.268 358.446 99.755C357.852 100.739 357.219 101.69 356.546 102.608C355.873 103.526 355.207 104.445 354.546 105.365C353.802 106.292 353.078 107.183 352.371 108.029C351.664 108.875 350.903 109.737 350.086 110.602C348.599 112.31 347.075 113.947 345.514 115.514C344.029 116.996 342.525 118.424 341.001 119.798C339.477 121.172 337.972 122.564 336.485 123.975L335.485 126.817C335.112 127.92 334.74 128.965 334.371 129.953C334.001 130.946 333.627 131.989 333.257 133.092C332.437 135.306 331.619 137.409 330.803 139.401C329.986 141.468 329.132 143.537 328.241 145.608C327.35 147.679 326.384 149.765 325.341 151.866M313.524 147.548C314.415 145.619 315.195 143.71 315.865 141.819C316.01 141.575 316.124 141.312 316.202 141.039C316.275 140.765 316.387 140.503 316.536 140.261C316.265 140.431 316.004 140.617 315.756 140.818C315.505 141.019 315.244 141.206 314.973 141.378C314.156 142.091 313.338 142.786 312.521 143.465C311.704 144.144 310.886 144.839 310.069 145.552C308.358 146.989 306.761 148.374 305.276 149.709C304.529 150.413 303.842 151.127 303.215 151.85C302.588 152.573 301.973 153.279 301.371 153.968C301.221 154.138 301.071 154.307 300.924 154.48C300.777 154.653 300.624 154.816 300.48 154.992C300.218 155.268 300.026 155.604 299.923 155.97L299.476 156.479C299.432 156.588 299.376 156.691 299.309 156.787C299.241 156.88 299.185 156.981 299.142 157.087C298.995 157.469 298.808 157.835 298.585 158.179C298.288 158.818 297.99 159.535 297.691 160.328C297.558 160.668 297.465 161.022 297.414 161.383C297.382 161.658 297.326 161.93 297.247 162.195C297.224 162.642 297.261 163.09 297.357 163.527C297.345 163.699 297.384 163.87 297.47 164.019C297.552 164.134 297.626 164.255 297.691 164.381C297.889 164.571 298.115 164.73 298.361 164.853C298.706 165.053 299.083 165.19 299.475 165.26C299.922 165.286 300.371 165.26 300.813 165.184C301.311 165.097 301.798 164.955 302.264 164.76L302.931 164.327C303.058 164.316 303.177 164.261 303.268 164.171L303.378 164.041L303.491 164.024V163.911C303.781 163.725 304.043 163.499 304.271 163.241C304.514 162.965 304.774 162.703 305.049 162.458C305.644 161.849 306.185 161.19 306.666 160.487C307.149 159.783 307.652 159.02 308.173 158.197C308.69 157.374 309.173 156.537 309.624 155.686C310.075 154.835 310.549 153.961 311.072 153.065C311.519 152.177 311.946 151.274 312.353 150.356C312.76 149.438 313.151 148.502 313.524 147.548Z" fill="white"/>
<path d="M422.444 89.495C421.774 90.417 421.104 91.333 420.436 92.252C419.768 93.171 419.099 94.087 418.428 95.009C417.017 96.779 415.567 98.538 414.079 100.286C412.591 102.034 410.994 103.738 409.289 105.399C408.466 106.264 407.632 107.09 406.775 107.885C405.918 108.68 405.011 109.485 404.046 110.294C402.242 111.908 400.344 113.413 398.362 114.801C396.357 116.35 394.231 117.736 392.005 118.946C391.411 119.257 390.814 119.562 390.221 119.873C389.64 120.172 389.045 120.442 388.437 120.682C387.837 120.917 387.23 121.132 386.599 121.33C385.968 121.528 385.315 121.754 384.648 121.997C384.036 122.234 383.398 122.397 382.748 122.483C382.081 122.579 381.412 122.672 380.74 122.763C379.339 122.975 377.919 123.022 376.507 122.904C375.062 122.895 373.629 122.637 372.271 122.141C371.547 121.954 370.838 121.714 370.15 121.423C369.483 121.143 368.814 120.823 368.142 120.464C366.873 119.736 365.71 118.836 364.686 117.792C364.17 117.272 363.687 116.72 363.238 116.141C362.791 115.564 362.381 115.004 362.011 114.453C361.63 113.89 361.296 113.297 361.011 112.68C360.717 112.054 360.457 111.413 360.231 110.759C359.791 109.484 359.456 108.175 359.231 106.845C358.937 105.613 358.77 104.353 358.731 103.087C358.694 101.82 358.713 100.541 358.788 99.25C358.863 97.9587 358.993 96.703 359.178 95.483C359.365 94.259 359.608 93.06 359.902 91.895C361.107 87.1832 362.866 82.6307 365.142 78.333C365.662 77.21 366.217 76.142 366.813 75.118C367.409 74.094 368.04 73.091 368.708 72.095C369.376 71.099 370.046 70.13 370.716 69.171C371.409 68.1854 372.152 67.2368 372.944 66.329C373.325 65.8162 373.736 65.326 374.174 64.861C374.621 64.386 375.028 63.936 375.401 63.509C375.845 63.074 376.292 62.652 376.736 62.253C377.18 61.854 377.63 61.436 378.073 60.997C379.04 60.115 380.025 59.2837 381.028 58.503C382.046 57.7159 383.107 56.9861 384.206 56.317C385.173 55.7343 386.325 55.086 387.662 54.372C388.256 54.14 388.869 53.903 389.503 53.665C390.137 53.427 390.784 53.187 391.454 52.944C392.126 52.7009 392.816 52.511 393.518 52.376C394.234 52.241 394.963 52.1953 395.69 52.24C396.431 52.215 397.197 52.223 397.975 52.26C398.791 52.3124 399.597 52.4652 400.375 52.715C401.971 53.1711 403.452 53.9628 404.718 55.037C406.04 56.0617 407.11 57.3765 407.843 58.88C408.54 60.2379 409.064 61.6782 409.401 63.167C409.62 64.6427 409.732 66.1322 409.737 67.624C409.738 69.0334 409.626 70.4406 409.401 71.832C409.254 72.532 409.084 73.212 408.901 73.876C408.718 74.54 408.548 75.176 408.401 75.802C407.952 77.1393 407.449 78.4467 406.894 79.724C406.317 81.0405 405.628 82.3046 404.833 83.502C404.111 84.7974 403.251 86.011 402.268 87.122C401.338 88.4222 400.21 89.5693 398.926 90.522C398.329 91.0553 397.66 91.5983 396.918 92.151C396.719 92.224 396.531 92.325 396.361 92.451L396.024 92.609C395.969 92.6817 395.89 92.7326 395.801 92.753C395.512 92.9225 395.215 93.0774 394.91 93.217C393.771 93.8315 392.576 94.3361 391.341 94.724C388.875 95.6603 386.279 96.2117 383.645 96.359L381.645 96.302C381.327 96.2846 381.01 96.2512 380.695 96.202C380.376 96.1555 380.061 96.0887 379.751 96.002C378.511 95.7742 377.309 95.3736 376.18 94.812C375.891 94.7078 375.611 94.5773 375.346 94.422C375.087 94.2741 374.845 94.0998 374.622 93.902C374.374 93.7845 374.147 93.626 373.952 93.433C373.672 93.2754 373.41 93.0865 373.172 92.87C372.799 92.47 372.428 92.07 372.055 91.67C371.682 91.27 371.311 90.833 370.938 90.361C370.906 90.3353 370.88 90.3031 370.862 90.2665C370.843 90.23 370.833 90.1899 370.831 90.149C370.829 90.1083 370.818 90.0686 370.798 90.0329C370.779 89.9972 370.751 89.9664 370.718 89.943V91.743C370.714 92.6571 370.771 93.5704 370.888 94.477C370.998 95.325 371.128 96.154 371.278 96.957C371.422 97.7491 371.626 98.5291 371.889 99.29C372.132 99.9976 372.411 100.692 372.726 101.371C373.167 102.534 373.848 103.59 374.726 104.471C375.041 104.887 375.417 105.252 375.843 105.554C376.216 105.803 376.624 106.046 377.067 106.284C377.459 106.542 377.894 106.729 378.351 106.835C378.883 106.965 379.423 107.06 379.968 107.121C380.59 107.265 381.225 107.346 381.863 107.361C382.533 107.381 383.274 107.409 384.091 107.446C384.464 107.392 384.855 107.358 385.262 107.339C385.669 107.32 386.062 107.282 386.433 107.232C387.265 107.267 388.096 107.151 388.887 106.89C390.706 106.557 392.496 106.083 394.24 105.47C395.131 105.122 396.022 104.736 396.915 104.313C397.808 103.89 398.698 103.427 399.587 102.925C400.481 102.425 401.351 101.89 402.208 101.325C403.065 100.76 403.899 100.191 404.716 99.625C406.427 98.415 408.119 97.1303 409.792 95.771C411.465 94.4117 413.081 92.9847 414.639 91.49C415.012 91.142 415.402 90.79 415.813 90.427C416.23 90.063 416.622 89.67 416.984 89.251C417.352 88.903 417.745 88.513 418.155 88.077C418.565 87.641 418.955 87.217 419.326 86.788C419.697 86.359 420.254 85.781 421 85.038C421.746 84.295 422.3 83.715 422.668 83.285C423.016 82.8738 423.389 82.4847 423.785 82.12L424.229 81.492L424.786 80.853C424.904 80.662 425.06 80.4977 425.245 80.3706C425.429 80.2435 425.639 80.1564 425.859 80.1149C426.079 80.0733 426.306 80.0783 426.524 80.1295C426.743 80.1807 426.948 80.2769 427.127 80.412C427.284 80.5333 427.415 80.6852 427.512 80.8585C427.608 81.0318 427.669 81.223 427.69 81.4203C427.711 81.6177 427.691 81.8173 427.633 82.007C427.575 82.1967 427.478 82.3725 427.35 82.524L427.127 82.889L426.904 83.257L426.347 84.012C426.197 84.258 426.047 84.484 425.903 84.693C425.759 84.902 425.603 85.128 425.456 85.372C425.156 85.864 424.676 86.551 424.005 87.433C423.334 88.315 422.814 89.005 422.447 89.506M374.279 74.924C373.832 75.8169 373.441 76.7367 373.108 77.678C372.774 78.625 372.455 79.57 372.161 80.511C371.606 82.2445 371.232 84.0306 371.044 85.841L371.157 85.941C372.048 86.419 372.905 86.823 373.722 87.163C374.533 87.5259 375.401 87.7468 376.287 87.816C376.375 87.8581 376.47 87.8832 376.567 87.89C376.662 87.901 376.756 87.926 376.844 87.964C376.955 87.9424 377.069 87.9451 377.178 87.972C377.286 88.0043 377.401 88.0091 377.512 87.986C377.714 88.0283 377.922 88.0361 378.126 88.009C378.331 87.9851 378.538 87.9946 378.74 88.037C380.357 87.9723 381.946 87.5989 383.423 86.937C384.164 86.609 384.891 86.247 385.598 85.846C386.305 85.445 387.029 85.009 387.772 84.528C388.139 84.254 388.493 83.9797 388.832 83.705C389.166 83.436 389.519 83.159 389.89 82.885C389.955 82.8086 390.03 82.7413 390.113 82.685C390.196 82.6284 390.271 82.5611 390.336 82.485L390.446 82.358L390.559 82.228C390.673 82.1664 390.768 82.0744 390.833 81.962C390.913 81.8272 391.007 81.7012 391.113 81.586C391.297 81.3698 391.464 81.1402 391.613 80.899C391.797 80.611 391.964 80.345 392.113 80.099C392.573 79.4851 392.912 78.7895 393.113 78.049C393.49 77.3854 393.79 76.6808 394.007 75.949C394.23 75.205 394.407 74.449 394.564 73.678C394.638 73.291 394.711 72.923 394.787 72.578C394.86 72.2206 394.897 71.8568 394.897 71.492C394.964 71.1539 395.001 70.8106 395.007 70.466V69.449C395.078 69.1328 395.097 68.8073 395.064 68.485C395.024 68.2088 395.005 67.93 395.007 67.651C395.009 67.389 394.991 67.1273 394.953 66.868C394.919 66.6852 394.9 66.4999 394.896 66.314C394.826 66.1199 394.789 65.9154 394.786 65.709C394.788 65.5393 394.75 65.3715 394.673 65.22C394.642 64.911 394.527 64.6164 394.339 64.369C394.181 64.2287 394.03 64.0794 393.889 63.922C393.704 63.7322 393.476 63.5904 393.224 63.509C392.636 63.181 391.991 62.9654 391.324 62.873C390.942 62.7729 390.547 62.7328 390.153 62.754C389.763 62.7719 389.372 62.7699 388.982 62.748C388.151 62.713 387.32 62.8278 386.53 63.087C384.75 63.5869 383.086 64.4305 381.63 65.57C380.813 66.1512 380.064 66.8221 379.396 67.57C378.729 68.27 378.096 68.99 377.501 69.75C376.255 71.364 375.173 73.0975 374.269 74.925" fill="white"/>
<path d="M482.2 71.949C483.164 72.342 483.388 73.021 482.87 73.996V74.106C481.977 75.8847 481.085 77.6407 480.195 79.374C479.305 81.1073 478.412 82.829 477.514 84.539C476.553 86.323 475.583 88.074 474.614 89.779C473.645 91.484 472.643 93.209 471.603 94.925C471.456 95.174 471.326 95.397 471.213 95.604C471.105 95.8034 470.975 95.9902 470.826 96.161C470.673 96.41 470.526 96.636 470.379 96.842C470.232 97.048 470.079 97.277 469.935 97.521C469.635 97.942 469.358 98.352 469.098 98.765C468.814 99.2082 468.497 99.6288 468.148 100.023C467.848 100.442 467.534 100.84 467.201 101.223C466.868 101.606 466.514 102.012 466.143 102.439C465.489 103.34 464.7 104.134 463.802 104.792C462.973 105.691 461.991 106.435 460.902 106.992C460.31 107.351 459.673 107.63 459.007 107.821C458.292 108.07 457.535 108.175 456.779 108.129C456.023 108.105 455.273 107.983 454.548 107.764C453.841 107.611 453.186 107.276 452.648 106.791C452.13 106.412 451.646 105.989 451.2 105.527C451.065 105.268 450.897 105.028 450.7 104.812C450.503 104.595 450.335 104.354 450.2 104.094C449.632 103.165 449.182 102.168 448.86 101.128C448.713 100.625 448.564 100.139 448.413 99.672C448.266 99.203 448.113 98.679 447.969 98.1C447.823 97.6172 447.729 97.1205 447.686 96.618C447.652 96.137 447.596 95.637 447.522 95.125L447.188 92.13C446.969 88.0972 447.082 84.0533 447.526 80.039C447.823 77.7457 448.269 75.2807 448.863 72.644C447.328 73.0849 445.763 73.4157 444.18 73.634C441.759 74.1215 439.292 74.3518 436.822 74.321C434.955 74.2402 433.094 74.0486 431.249 73.747C431.183 73.8219 431.126 73.9045 431.079 73.993C431.037 74.0846 430.982 74.1695 430.915 74.245C430.536 75.2967 430.05 76.3067 429.464 77.259C429.252 77.7942 429.01 78.3173 428.74 78.826C428.48 79.3127 428.201 79.802 427.903 80.294C427.68 80.772 427.436 81.255 427.179 81.742C426.922 82.229 426.639 82.718 426.342 83.21C426.195 83.459 426.042 83.702 425.895 83.948C425.748 84.194 425.601 84.44 425.448 84.686C425.188 85.1992 424.89 85.6925 424.557 86.162C424.486 86.3196 424.378 86.4577 424.242 86.5646C424.107 86.6715 423.947 86.744 423.777 86.776C423.449 86.8677 423.1 86.8579 422.777 86.748C422.52 86.5492 422.336 86.27 422.256 85.9549C422.175 85.6398 422.203 85.3069 422.333 85.009C422.62 84.5376 422.879 84.0505 423.111 83.55L423.781 82.108C424.004 81.622 424.242 81.138 424.505 80.652C424.768 80.166 425.005 79.685 425.232 79.204C425.453 78.6467 425.675 78.1273 425.899 77.646C426.125 77.165 426.346 76.682 426.569 76.201C427.016 75.166 427.423 74.168 427.793 73.218C427.859 73.1554 427.899 73.0706 427.906 72.98C426.942 72.587 425.972 72.16 425.006 71.693C424.016 71.2107 423.082 70.6229 422.218 69.94C421.083 69.175 420.099 68.2055 419.318 67.081C418.403 65.8871 417.724 64.5295 417.318 63.081C416.867 61.5229 416.753 59.8867 416.982 58.281C417.14 56.5045 417.672 54.7815 418.543 53.225C418.834 52.8734 419.095 52.4977 419.323 52.102C419.461 51.941 419.611 51.79 419.77 51.65C419.928 51.5054 420.077 51.3514 420.217 51.189C420.495 50.8669 420.792 50.5626 421.108 50.278C421.408 50.009 421.741 49.738 422.115 49.464C422.731 49.0201 423.404 48.6615 424.115 48.398C424.782 48.152 425.45 47.909 426.123 47.666L427.123 47.53L427.57 47.468L427.68 47.451L427.79 47.434L428.013 47.406C428.313 47.364 428.607 47.321 428.907 47.282C429.239 47.2393 429.574 47.2299 429.907 47.254C430.203 47.2888 430.501 47.3038 430.798 47.299C431.136 47.3021 431.472 47.3488 431.798 47.438C432.121 47.5213 432.438 47.6283 432.745 47.758C433.005 47.874 433.319 48.015 433.692 48.188C433.977 48.3645 434.24 48.5743 434.475 48.813C434.698 49.048 434.919 49.299 435.142 49.562C435.35 49.8119 435.519 50.0921 435.642 50.393C435.756 50.6783 435.886 50.998 436.032 51.352C436.176 51.6203 436.271 51.9122 436.312 52.214C436.347 52.5101 436.404 52.8032 436.482 53.091C436.477 53.4085 436.495 53.7259 436.533 54.041C436.574 54.3171 436.594 54.5959 436.592 54.875C436.596 55.1983 436.576 55.5215 436.533 55.842C436.497 56.1242 436.48 56.4085 436.482 56.693C436.408 56.9737 436.369 57.2626 436.366 57.553C436.364 57.8432 436.326 58.132 436.253 58.413C436.182 58.727 436.069 59.267 435.922 60.036L438.15 59.728C441.631 59.2161 445.037 58.2874 448.296 56.962C449.207 56.6835 450.102 56.3519 450.974 55.969C451.865 55.5843 452.757 55.2177 453.649 54.869C454.54 54.448 455.411 54.024 456.27 53.605C457.129 53.186 458.032 52.76 458.999 52.324L461.564 51.405C462.438 51.0452 463.38 50.8814 464.324 50.9249C465.268 50.9684 466.19 51.2183 467.027 51.657C467.856 52.0763 468.579 52.6794 469.14 53.4205C469.7 54.1616 470.084 55.0209 470.262 55.933C470.557 57.3148 470.46 58.7513 469.982 60.081C469.52 61.4261 468.735 62.6377 467.697 63.61C466.619 64.6944 465.612 65.8485 464.685 67.065C464.241 67.73 463.794 68.408 463.347 69.109C462.9 69.81 462.493 70.523 462.12 71.25C460.481 74.3591 459.104 77.6001 458.006 80.939C457.783 81.799 457.562 82.639 457.339 83.453C457.116 84.267 456.889 85.113 456.669 85.967C456.593 86.354 456.522 86.776 456.446 87.237C456.37 87.698 456.296 88.122 456.225 88.504C456.145 88.9218 456.088 89.3438 456.055 89.768C456.023 90.1901 455.967 90.61 455.888 91.026C455.741 91.8556 455.667 92.6965 455.667 93.539V96.013C455.739 96.379 455.776 96.751 455.777 97.124C455.777 97.4961 455.814 97.8673 455.887 98.232C455.964 98.9101 456.153 99.5708 456.446 100.187C456.6 100.64 456.826 101.065 457.116 101.445C457.201 101.598 457.315 101.734 457.45 101.845C457.524 101.907 457.58 101.938 457.617 101.933C457.654 101.928 457.71 101.961 457.784 102.021C457.86 102.009 457.937 102.019 458.007 102.049C458.078 102.076 458.155 102.084 458.23 102.072C458.365 102.056 458.496 102.02 458.62 101.965C458.743 101.906 458.875 101.868 459.01 101.852C459.323 101.728 459.623 101.573 459.904 101.388C460.198 101.199 460.532 101.003 460.904 100.797C461.644 100.351 462.318 99.8024 462.904 99.168C463.591 98.6137 464.227 97.9985 464.804 97.33L466.699 95.15C466.859 94.9705 467.009 94.7815 467.146 94.584C467.296 94.375 467.446 94.184 467.593 94.013C467.862 93.6132 468.161 93.2341 468.487 92.879C470.789 89.812 472.875 86.5881 474.728 83.231C475.248 82.411 475.732 81.593 476.179 80.777C476.627 79.961 477.072 79.1107 477.514 78.226C477.964 77.341 478.408 76.47 478.854 75.626C479.3 74.782 479.711 73.912 480.081 73.033C480.162 72.8299 480.283 72.6448 480.436 72.4884C480.589 72.3321 480.771 72.2075 480.972 72.122C481.348 71.9213 481.783 71.8603 482.199 71.95M425.006 55.26C425.14 55.737 425.367 56.1829 425.673 56.572C425.974 56.951 426.311 57.2996 426.68 57.613L428.015 58.442C428.283 58.5382 428.543 58.6525 428.795 58.784C429.048 58.9146 429.31 59.0278 429.578 59.123C430.033 59.3696 430.52 59.5488 431.026 59.655C431.579 59.7772 432.138 59.8686 432.7 59.929C432.844 59.16 432.96 58.617 433.034 58.306C433.033 58.04 433.051 57.7743 433.088 57.511C433.125 57.2849 433.144 57.0561 433.145 56.827C433.221 56.5853 433.259 56.3333 433.258 56.08V55.348C433.3 54.5191 433.147 53.692 432.811 52.933C432.653 52.6409 432.467 52.3653 432.254 52.11C432.055 51.9218 431.83 51.7644 431.584 51.643C430.905 51.3996 430.173 51.3456 429.466 51.487C429.277 51.5166 429.091 51.5611 428.909 51.62C428.69 51.6877 428.466 51.7379 428.239 51.77V51.883L428.129 51.897L428.016 51.911L427.906 51.928C427.817 51.9472 427.737 51.9984 427.683 52.072C427.566 52.0833 427.452 52.1172 427.347 52.172C427.282 52.2198 427.206 52.2501 427.126 52.26C426.458 52.6112 425.882 53.116 425.446 53.733C425.236 53.9603 425.117 54.2573 425.112 54.567C425.03 54.7885 424.993 55.024 425.002 55.26" fill="white"/>
<path d="M410.305 179.985C409.479 181.366 408.537 182.675 407.489 183.896C406.508 185.205 405.458 186.48 404.339 187.719C403.182 188.997 401.953 190.207 400.657 191.344C400.026 191.884 399.377 192.425 398.709 192.967C398.045 193.516 397.301 194.067 396.498 194.627C395.011 195.693 393.389 196.556 391.674 197.195C389.978 197.986 388.169 198.512 386.313 198.753L385.643 198.846L383.633 202.372C381.989 205.231 380.151 207.975 378.133 210.584C377.073 211.981 375.932 213.315 374.714 214.577C373.507 215.827 372.233 217.042 370.894 218.222C370.179 218.771 369.466 219.322 368.748 219.873C368.03 220.424 367.275 220.981 366.475 221.544C366.022 221.787 365.62 222.001 365.267 222.186C364.914 222.371 364.512 222.584 364.06 222.825C363.267 223.362 362.411 223.8 361.512 224.131C361.111 224.353 360.683 224.525 360.239 224.643C359.839 224.745 359.415 224.872 358.967 225.025C358.517 225.178 358.073 225.305 357.629 225.415C357.185 225.525 356.729 225.653 356.283 225.805L355.613 225.898L355.213 225.952L355.077 225.972L354.938 225.992C354.507 226.15 354.059 226.257 353.603 226.312C353.133 226.287 352.661 226.308 352.195 226.374C351.684 226.442 351.169 226.469 350.654 226.453C348.66 226.452 346.675 226.181 344.754 225.647C343.775 225.336 342.831 224.923 341.938 224.414C341.053 223.912 340.202 223.353 339.39 222.74C337.797 221.538 336.472 220.016 335.502 218.272C335.008 217.435 334.561 216.571 334.162 215.685C333.789 214.828 333.476 213.945 333.226 213.044C332.656 211.338 332.254 209.58 332.026 207.796C331.849 206.941 331.759 206.07 331.757 205.196C331.758 204.321 331.712 203.446 331.621 202.575C331.618 199.183 331.888 195.797 332.43 192.449C332.697 190.786 333.009 189.142 333.366 187.515C333.723 185.888 334.123 184.277 334.566 182.68C335.457 179.578 336.528 176.404 337.781 173.159C339.023 169.944 340.459 166.808 342.081 163.768C342.864 162.156 343.735 160.589 344.691 159.074C345.63 157.589 346.68 156.044 347.841 154.439C348.375 153.646 348.957 152.888 349.586 152.168C350.208 151.45 350.878 150.725 351.597 149.993C353.001 148.405 354.524 146.927 356.152 145.57C357.938 144.006 359.922 142.682 362.052 141.634C362.578 141.295 363.138 141.012 363.723 140.791C364.308 140.576 364.911 140.336 365.538 140.064L367.549 139.38L368.615 139.23C368.693 139.225 368.766 139.192 368.821 139.137C368.918 139.064 369.036 139.023 369.158 139.021L369.427 138.981L369.554 138.964C371.37 138.588 373.257 138.749 374.983 139.428C376.577 140.051 377.953 141.129 378.939 142.528C380.513 142.026 382.128 141.665 383.766 141.448C384.303 141.465 384.838 141.456 385.375 141.428C385.957 141.404 386.539 141.438 387.114 141.528C388.222 141.758 389.302 142.107 390.335 142.569C391.348 143.088 392.294 143.729 393.151 144.478C393.837 145.244 394.463 146.062 395.023 146.924C395.542 147.716 395.969 148.566 396.295 149.455C396.607 150.302 396.854 151.171 397.033 152.055C397.214 152.932 397.347 153.771 397.433 154.572C397.524 155.419 397.568 156.271 397.566 157.123C397.656 158.728 397.635 160.337 397.504 161.939C397.365 163.539 397.163 165.123 396.896 166.69C396.393 169.796 395.721 172.873 394.885 175.906C394.438 177.506 393.992 179.034 393.545 180.49C393.098 181.946 392.562 183.441 391.936 184.975C391.758 185.541 391.554 186.095 391.336 186.618C391.118 187.141 390.909 187.693 390.731 188.258C391.178 188.105 391.622 187.978 392.074 187.868C392.541 187.751 392.991 187.575 393.414 187.345C393.946 187.088 394.506 186.811 395.085 186.502C395.664 186.193 396.273 185.863 396.895 185.502C398.082 184.783 399.224 183.991 400.314 183.132C401.434 182.255 402.528 181.336 403.597 180.375C404.134 179.852 404.652 179.329 405.138 178.806C405.624 178.283 406.145 177.765 406.682 177.239C407.227 176.702 407.742 176.134 408.223 175.539C408.712 174.928 409.182 174.368 409.631 173.854C410.007 173.387 410.524 173.054 411.104 172.904C411.364 172.844 411.635 172.849 411.892 172.919C412.15 172.989 412.386 173.121 412.58 173.304C412.785 173.448 412.958 173.633 413.09 173.846C413.222 174.059 413.309 174.297 413.346 174.545C413.383 174.792 413.37 175.045 413.307 175.288C413.245 175.53 413.133 175.758 412.98 175.956C412.531 176.649 412.084 177.32 411.64 177.969C411.196 178.618 410.749 179.289 410.3 179.98M374.778 201.98C375.695 200.923 376.545 199.809 377.323 198.646C377.342 198.646 377.362 198.642 377.379 198.634C377.397 198.626 377.413 198.614 377.425 198.6C377.438 198.586 377.448 198.569 377.454 198.55C377.46 198.532 377.461 198.512 377.459 198.493C377.07 198.395 376.689 198.267 376.319 198.111C375.951 197.956 375.572 197.828 375.185 197.729C374.285 197.404 373.437 197.045 372.632 196.66C371.85 196.29 371.089 195.876 370.353 195.421C367.519 193.412 365.068 190.912 363.117 188.038C362.818 187.742 362.55 187.416 362.317 187.065L362.181 186.68L362.046 186.699V186.43C361.964 186.363 361.896 186.28 361.846 186.187C361.793 186.096 361.726 186.013 361.646 185.944C361.462 185.517 361.259 185.096 361.038 184.674C360.817 184.252 360.617 183.834 360.438 183.404C359.731 181.732 359.192 179.994 358.829 178.215C358.456 176.369 358.278 174.488 358.297 172.605V170.985C358.213 171.074 358.144 171.175 358.091 171.285C358.041 171.395 357.973 171.496 357.891 171.585C356.389 173.841 355.047 176.2 353.873 178.643C351.468 183.378 349.581 188.359 348.246 193.499C347.977 194.799 347.729 196.052 347.508 197.257C347.28 198.486 347.124 199.726 347.041 200.973C346.758 203.126 346.802 205.309 347.171 207.449C347.283 208.347 347.508 209.227 347.841 210.068C348.022 210.402 348.194 210.718 348.378 211.007C348.562 211.296 348.734 211.567 348.915 211.813L349.65 212.455C349.909 212.67 350.205 212.836 350.524 212.944C351.254 213.247 352.018 213.458 352.8 213.572C353.284 213.677 353.782 213.7 354.273 213.64C354.495 213.598 354.725 213.613 354.94 213.682L355.34 213.625L355.74 213.566L357.352 213.343C357.624 213.307 357.891 213.246 358.152 213.162C358.416 213.084 358.686 213.025 358.958 212.984C361.291 212.359 363.508 211.365 365.527 210.04C367.752 208.563 369.857 206.912 371.822 205.103C372.359 204.58 372.877 204.057 373.366 203.536C373.855 203.015 374.327 202.501 374.774 201.986M383.622 152.71C382.781 152.901 381.994 153.28 381.32 153.819C380.647 154.359 380.104 155.044 379.734 155.823C379.436 156.202 379.166 156.603 378.928 157.023C378.843 157.215 378.747 157.433 378.659 157.668C378.581 157.889 378.491 158.105 378.39 158.316C377.977 159.254 377.707 160.249 377.59 161.268C377.412 162.289 377.231 163.259 377.055 164.186C376.872 165.145 376.739 166.113 376.655 167.086C376.562 167.588 376.496 168.095 376.455 168.604C376.407 169.153 376.387 169.65 376.387 170.104C376.299 170.576 376.277 171.057 376.322 171.535C376.364 172.027 376.387 172.542 376.387 173.082C376.48 173.543 376.525 174.012 376.523 174.482C376.527 175 376.618 175.513 376.792 176.001C376.81 176.452 376.9 176.897 377.061 177.319V177.726C377.061 177.816 377.103 177.856 377.2 177.842V178.099C377.269 178.218 377.312 178.35 377.327 178.486C377.342 178.625 377.389 178.758 377.463 178.876C378.054 180.808 378.911 182.648 380.011 184.342C380.263 184.735 380.555 185.101 380.882 185.433C381.199 185.755 381.527 186.112 381.882 186.513C382.21 186.817 382.57 187.085 382.954 187.313C383.161 187.451 383.388 187.557 383.627 187.627C383.893 186.869 384.181 186.127 384.498 185.407C384.815 184.687 385.098 183.951 385.369 183.187C385.81 181.866 386.24 180.518 386.641 179.155C387.042 177.792 387.424 176.409 387.781 175.007C388.139 173.679 388.408 172.329 388.587 170.966C388.762 169.589 388.946 168.209 389.121 166.832C389.211 165.501 389.234 164.166 389.189 162.832C389.143 161.556 389.032 160.284 388.855 159.02C388.771 157.893 388.498 156.787 388.046 155.751C387.785 154.865 387.327 154.049 386.708 153.364C386.47 153.138 386.201 152.947 385.908 152.798C385.838 152.686 385.737 152.597 385.617 152.541C385.496 152.486 385.363 152.467 385.232 152.487C385.144 152.502 385.053 152.492 384.969 152.459C384.839 152.423 384.702 152.418 384.569 152.445C384.246 152.487 383.93 152.576 383.633 152.711" fill="white"/>
<path d="M476.454 156.942C476.675 157.145 476.827 157.413 476.887 157.708C476.947 158.002 476.912 158.308 476.788 158.582C476.579 159.011 476.394 159.451 476.231 159.9L475.564 161.232C475.437 161.581 475.288 161.921 475.117 162.25C474.894 162.694 474.65 163.158 474.393 163.644C474.136 164.13 473.87 164.6 473.61 165.044C473.411 165.369 473.243 165.713 473.11 166.07C472.745 166.937 472.336 167.784 471.885 168.609C471.441 169.421 470.991 170.272 470.547 171.16C470.027 172.06 469.547 172.91 469.096 173.728C468.645 174.546 468.163 175.357 467.648 176.18C467.363 176.574 467.102 176.985 466.865 177.41C466.629 177.837 466.369 178.249 466.085 178.646C465.788 179.065 465.509 179.479 465.248 179.89C464.987 180.301 464.709 180.714 464.414 181.131C463.817 181.965 463.241 182.777 462.686 183.566C462.131 184.355 461.517 185.173 460.845 186.018C459.509 187.712 458.016 189.276 456.385 190.689C455.941 191.127 455.494 191.523 455.05 191.889C454.606 192.255 454.117 192.619 453.599 192.989C453.076 193.289 452.519 193.608 451.925 193.953C451.319 194.303 450.683 194.599 450.025 194.838C449.655 194.96 449.284 195.09 448.914 195.217C448.551 195.341 448.177 195.431 447.797 195.486L446.573 195.656C446.351 195.687 446.127 195.699 445.903 195.693C445.68 195.685 445.417 195.665 445.123 195.634C444.885 195.588 444.642 195.564 444.399 195.563C444.146 195.564 443.896 195.503 443.672 195.385C443.378 195.275 443.098 195.185 442.835 195.108C442.572 195.031 442.298 194.938 441.998 194.828C441.528 194.511 441.082 194.16 440.663 193.779C440.424 193.644 440.215 193.461 440.049 193.242C439.865 193.007 439.696 192.787 439.549 192.583C439.029 191.839 438.616 191.025 438.322 190.165C438.19 189.792 438.077 189.413 437.985 189.028C437.914 188.7 437.838 188.355 437.762 187.99C437.624 187.332 437.55 186.662 437.541 185.99V184.19C437.614 183.624 437.652 183.053 437.654 182.482C437.653 181.951 437.689 181.422 437.761 180.896C437.837 180.359 437.914 179.841 437.984 179.341C438.054 178.841 438.134 178.365 438.21 177.905C438.357 176.838 438.524 175.838 438.71 174.905C438.894 173.98 439.1 173.05 439.324 172.12L440.662 166.532C441.106 164.742 441.571 162.95 442.056 161.156C442.541 159.362 443.005 157.572 443.447 155.786C443.67 154.929 443.874 154.078 444.061 153.224C444.248 152.37 444.454 151.519 444.677 150.659C444.9 149.799 445.104 148.971 445.288 148.159C445.472 147.347 445.641 146.553 445.788 145.781C445.864 145.396 445.975 144.893 446.125 144.271C446.025 144.275 445.928 144.31 445.848 144.371C445.802 144.416 445.742 144.444 445.678 144.45C445.324 144.608 444.988 144.805 444.678 145.038C444.325 145.226 443.988 145.444 443.671 145.688C443.357 145.931 443.022 146.145 442.671 146.33C441.998 146.799 441.334 147.308 440.663 147.851C439.979 148.407 439.345 149.022 438.768 149.689C438.451 149.974 438.152 150.279 437.874 150.602C437.574 150.941 437.274 151.283 436.983 151.626C436.692 151.969 436.406 152.305 436.146 152.641C435.886 152.977 435.609 153.32 435.312 153.659C434.269 155.081 433.251 156.552 432.244 158.082C431.237 159.612 430.253 161.156 429.289 162.714C428.851 163.557 428.369 164.376 427.844 165.168L427.175 166.389C426.952 166.796 426.731 167.201 426.505 167.605C426.134 168.411 425.726 169.2 425.281 169.972C424.823 170.772 424.414 171.599 424.057 172.449C423.237 174.14 422.437 175.827 421.657 177.511C420.877 179.195 420.153 180.872 419.485 182.542C419.112 183.421 418.778 184.275 418.485 185.104C418.185 185.933 417.852 186.789 417.485 187.66C417.332 188.06 417.185 188.491 417.035 188.96C416.885 189.429 416.741 189.86 416.591 190.26C416.434 190.682 416.303 191.114 416.198 191.552C416.096 191.993 415.967 192.427 415.811 192.852C415.795 192.852 415.78 192.856 415.765 192.862C415.751 192.869 415.738 192.879 415.727 192.891C415.717 192.903 415.709 192.917 415.705 192.932C415.7 192.947 415.699 192.963 415.701 192.979L415.478 194.133C415.132 196.314 414.002 198.294 412.3 199.701C410.692 201.131 408.595 201.887 406.444 201.81C405.464 201.813 404.498 201.581 403.625 201.135C402.753 200.688 402 200.039 401.43 199.242C400.837 198.412 400.422 197.468 400.211 196.47C400 195.472 399.997 194.441 400.203 193.442C400.193 193.208 400.231 192.974 400.313 192.755L415.024 136.789C415.374 135.343 416.248 134.078 417.478 133.24C418.63 132.384 420.066 132.002 421.491 132.174C422.114 132.247 422.715 132.451 423.253 132.775C423.791 133.098 424.254 133.533 424.61 134.049C424.978 134.576 425.237 135.171 425.371 135.799C425.505 136.428 425.512 137.077 425.39 137.708L419.596 170.6C419.89 169.808 420.186 169.015 420.484 168.222C420.784 167.433 421.078 166.605 421.375 165.734C421.528 165.341 421.695 164.903 421.881 164.428C422.067 163.953 422.229 163.517 422.381 163.122C422.531 162.65 422.717 162.191 422.938 161.748C423.16 161.307 423.347 160.848 423.495 160.377C424.236 158.624 425.002 156.868 425.78 155.109C426.558 153.35 427.397 151.58 428.291 149.809C428.461 149.37 428.666 148.945 428.905 148.539C429.162 148.092 429.405 147.626 429.629 147.145L430.966 144.484C431.486 143.584 431.984 142.671 432.466 141.741C432.948 140.811 433.487 139.855 434.083 138.868C434.383 138.455 434.677 138 434.974 137.508C435.271 137.016 435.574 136.524 435.865 136.035C436.236 135.608 436.608 135.144 436.982 134.641C437.355 134.141 437.723 133.677 438.096 133.247C438.94 132.289 439.834 131.375 440.774 130.51C441.732 129.54 442.818 128.707 444.003 128.033C444.597 127.654 445.21 127.286 445.847 126.933C446.471 126.584 447.123 126.286 447.795 126.042C448.168 125.915 448.522 125.79 448.853 125.669C449.184 125.548 449.54 125.426 449.913 125.296C450.296 125.258 450.671 125.168 451.03 125.03L451.587 124.954L451.808 124.923L452.144 124.875L452.365 124.844L452.588 124.813L453.038 124.751C453.333 124.702 453.633 124.697 453.929 124.737C454.28 124.688 454.634 124.677 454.987 124.706C455.321 124.734 455.674 124.76 456.045 124.782C456.819 124.911 457.57 125.146 458.279 125.482C459.029 125.784 459.739 126.177 460.394 126.65C460.737 126.873 461.055 127.13 461.344 127.419C461.604 127.682 461.881 127.942 462.178 128.202C462.401 128.547 462.605 128.855 462.794 129.13C462.988 129.429 463.155 129.744 463.294 130.072C463.642 130.571 463.905 131.124 464.072 131.709C464.222 132.252 464.372 132.778 464.519 133.278C464.724 134.149 464.837 135.039 464.855 135.933C465.002 136.676 465.002 137.441 464.855 138.184C464.863 139.445 464.75 140.705 464.519 141.945C464.374 142.479 464.262 143.023 464.185 143.571C464.109 144.118 463.998 144.659 463.851 145.191C463.701 145.737 463.551 146.246 463.407 146.715C463.263 147.184 463.107 147.696 462.957 148.242L462.066 151.067C461.766 152.011 461.433 152.919 461.066 153.796C460.69 154.749 460.339 155.662 460.003 156.533C459.667 157.404 459.316 158.281 458.945 159.154C458.201 160.989 457.475 162.737 456.77 164.414C456.065 166.091 455.379 167.756 454.709 169.428L452.709 174.436C452.112 175.943 451.517 177.564 450.922 179.297C450.567 180.226 450.36 181.204 450.308 182.197C450.348 182.717 450.568 182.927 450.978 182.833C451.597 182.64 452.181 182.351 452.709 181.976C453.447 181.495 454.267 181.009 455.158 180.506C455.515 180.244 455.849 179.952 456.158 179.635C456.455 179.332 456.753 179.048 457.052 178.781L459.06 176.813C460.321 175.51 461.547 174.176 462.736 172.813C463.925 171.45 465.116 170.046 466.307 168.603C466.898 167.922 467.475 167.203 468.029 166.448C468.583 165.693 469.166 164.941 469.76 164.186C470.294 163.496 470.778 162.769 471.208 162.011C471.881 160.903 472.362 160.145 472.659 159.726L473.553 158.589L474.331 157.469L474.444 157.452C474.512 157.259 474.627 157.085 474.779 156.947C474.931 156.809 475.114 156.711 475.313 156.661C475.512 156.612 475.721 156.612 475.919 156.663C476.118 156.714 476.301 156.813 476.452 156.952" fill="white"/>
<path d="M536.32 157.389C535.65 158.311 534.982 159.227 534.312 160.146C533.642 161.065 532.977 161.981 532.304 162.903C530.893 164.673 529.443 166.431 527.955 168.177C526.467 169.923 524.87 171.628 523.165 173.292C522.345 174.157 521.511 174.983 520.654 175.778C519.797 176.573 518.889 177.378 517.922 178.187C516.119 179.8 514.221 181.302 512.238 182.687C510.234 184.239 508.108 185.626 505.881 186.835C505.287 187.146 504.693 187.451 504.1 187.762C503.519 188.061 502.924 188.331 502.316 188.571C501.716 188.803 501.102 189.019 500.475 189.219C499.842 189.419 499.194 189.643 498.524 189.884C497.914 190.121 497.278 190.285 496.629 190.373C495.962 190.473 495.289 190.56 494.621 190.653C493.219 190.865 491.798 190.912 490.385 190.794C488.94 190.784 487.507 190.526 486.149 190.031C485.427 189.843 484.719 189.603 484.031 189.313C483.364 189.033 482.691 188.713 482.023 188.354C480.754 187.627 479.591 186.728 478.568 185.682C478.051 185.161 477.568 184.609 477.12 184.028C476.67 183.454 476.263 182.891 475.89 182.343C475.509 181.78 475.174 181.187 474.89 180.57C474.594 179.945 474.332 179.306 474.104 178.653C473.664 177.378 473.329 176.069 473.104 174.739C472.807 173.507 472.64 172.248 472.604 170.981C472.567 169.714 472.585 168.435 472.658 167.144C472.731 165.853 472.861 164.596 473.048 163.375C473.235 162.153 473.478 160.954 473.772 159.789C474.976 155.077 476.736 150.524 479.015 146.227C479.532 145.102 480.087 144.036 480.683 143.012C481.279 141.988 481.913 140.985 482.583 139.989C483.253 138.993 483.92 138.024 484.591 137.065C485.283 136.078 486.027 135.129 486.819 134.22C487.2 133.708 487.611 133.219 488.049 132.755C488.493 132.28 488.903 131.83 489.273 131.403C489.72 130.965 490.164 130.546 490.61 130.147C491.056 129.748 491.504 129.33 491.948 128.891C492.915 128.006 493.899 127.177 494.903 126.391C495.92 125.604 496.981 124.875 498.081 124.208C499.045 123.623 500.197 122.974 501.537 122.263C502.128 122.031 502.737 121.794 503.375 121.556C504.013 121.318 504.659 121.075 505.326 120.835C505.998 120.591 506.688 120.401 507.39 120.267C508.106 120.135 508.836 120.093 509.562 120.143C510.303 120.118 511.062 120.123 511.847 120.163C512.662 120.215 513.468 120.367 514.247 120.615C515.844 121.072 517.326 121.865 518.593 122.939C519.916 123.962 520.984 125.278 521.715 126.782C522.415 128.139 522.94 129.579 523.276 131.069C523.495 132.544 523.607 134.032 523.613 135.523C523.614 136.933 523.501 138.342 523.276 139.734C523.126 140.433 522.959 141.113 522.776 141.776C522.593 142.439 522.426 143.082 522.276 143.705C521.829 145.042 521.327 146.35 520.769 147.627C520.193 148.943 519.504 150.207 518.71 151.405C517.987 152.7 517.127 153.913 516.145 155.024C515.214 156.323 514.085 157.468 512.8 158.417C512.2 158.949 511.536 159.494 510.792 160.046C510.594 160.123 510.407 160.226 510.235 160.351L509.899 160.507C509.846 160.582 509.766 160.635 509.676 160.654C509.388 160.825 509.09 160.98 508.785 161.118C507.647 161.731 506.453 162.233 505.219 162.618C502.754 163.555 500.16 164.106 497.528 164.252L495.528 164.195C495.21 164.178 494.893 164.144 494.578 164.095C494.258 164.049 493.942 163.982 493.631 163.895C492.392 163.664 491.191 163.264 490.062 162.705C489.773 162.601 489.493 162.47 489.228 162.315C488.968 162.168 488.724 161.994 488.501 161.795C488.253 161.677 488.027 161.518 487.831 161.326C487.551 161.167 487.289 160.977 487.051 160.76C486.678 160.36 486.31 159.96 485.937 159.56C485.564 159.16 485.193 158.726 484.82 158.254C484.787 158.229 484.761 158.197 484.742 158.16C484.723 158.123 484.712 158.083 484.71 158.042C484.708 158.002 484.698 157.962 484.679 157.926C484.659 157.891 484.633 157.86 484.6 157.836V159.636C484.597 160.549 484.652 161.462 484.767 162.368C484.88 163.219 485.007 164.045 485.16 164.851C485.302 165.643 485.507 166.423 485.771 167.184C486.014 167.892 486.293 168.586 486.608 169.265C487.048 170.428 487.73 171.484 488.608 172.365C488.92 172.782 489.297 173.147 489.725 173.445C490.119 173.711 490.528 173.955 490.949 174.177C491.34 174.434 491.774 174.621 492.23 174.728C492.763 174.855 493.303 174.95 493.847 175.014C494.47 175.159 495.107 175.239 495.747 175.254C496.414 175.274 497.156 175.302 497.975 175.339C498.348 175.285 498.736 175.251 499.146 175.232C499.556 175.213 499.946 175.173 500.317 175.125C501.148 175.159 501.979 175.043 502.769 174.783C504.589 174.45 506.379 173.976 508.125 173.363C509.013 173.012 509.904 172.626 510.797 172.204C511.688 171.777 512.581 171.319 513.472 170.818C514.363 170.317 515.237 169.783 516.093 169.218C516.949 168.653 517.784 168.081 518.601 167.518C520.309 166.308 522 165.022 523.674 163.661C525.342 162.304 526.965 160.881 528.521 159.383C528.894 159.032 529.287 158.683 529.695 158.32C530.114 157.957 530.505 157.564 530.866 157.144C531.236 156.793 531.629 156.406 532.037 155.97C532.445 155.534 532.837 155.11 533.208 154.681C533.579 154.252 534.138 153.671 534.882 152.931C535.626 152.191 536.182 151.605 536.55 151.178C536.899 150.767 537.272 150.377 537.667 150.01L538.114 149.385L538.671 148.746C538.788 148.555 538.944 148.39 539.129 148.263C539.314 148.136 539.523 148.048 539.744 148.007C539.964 147.965 540.191 147.97 540.409 148.022C540.628 148.073 540.833 148.17 541.012 148.305C541.168 148.427 541.299 148.579 541.395 148.752C541.491 148.925 541.552 149.116 541.573 149.314C541.593 149.511 541.574 149.71 541.516 149.9C541.458 150.089 541.363 150.265 541.235 150.417L541.012 150.782L540.789 151.15L540.232 151.905C540.079 152.151 539.932 152.377 539.785 152.586C539.638 152.795 539.485 153.021 539.341 153.265C539.041 153.757 538.558 154.441 537.89 155.326C537.222 156.211 536.699 156.898 536.329 157.399M488.155 142.818C487.709 143.711 487.318 144.631 486.984 145.572C486.651 146.519 486.336 147.464 486.04 148.405C485.484 150.138 485.109 151.924 484.923 153.735L485.033 153.835C485.926 154.31 486.781 154.717 487.598 155.054C488.409 155.419 489.277 155.64 490.163 155.71C490.251 155.75 490.346 155.775 490.443 155.784C490.539 155.793 490.632 155.818 490.72 155.858C490.83 155.836 490.944 155.839 491.054 155.866C491.163 155.897 491.279 155.901 491.39 155.877C491.591 155.921 491.799 155.93 492.004 155.902C492.209 155.877 492.416 155.886 492.618 155.93C494.234 155.867 495.823 155.493 497.298 154.83C498.042 154.505 498.766 154.14 499.475 153.741C500.184 153.342 500.906 152.904 501.647 152.423C502.018 152.149 502.371 151.875 502.707 151.6C503.041 151.331 503.394 151.054 503.767 150.777C503.832 150.7 503.907 150.633 503.99 150.577C504.071 150.519 504.146 150.452 504.211 150.377L504.324 150.247L504.434 150.12C504.549 150.06 504.645 149.968 504.708 149.854C504.789 149.72 504.883 149.594 504.988 149.478C505.174 149.261 505.343 149.031 505.494 148.788C505.675 148.502 505.845 148.237 505.994 147.988C506.453 147.374 506.792 146.678 506.994 145.938C507.371 145.274 507.671 144.57 507.888 143.838C508.113 143.09 508.299 142.331 508.445 141.564C508.518 141.179 508.595 140.812 508.671 140.464C508.742 140.106 508.777 139.743 508.778 139.378C508.847 139.04 508.885 138.697 508.891 138.352V137.343C508.962 137.027 508.981 136.701 508.948 136.379C508.908 136.103 508.889 135.824 508.891 135.545C508.894 135.283 508.875 135.021 508.835 134.762C508.801 134.579 508.782 134.394 508.778 134.208C508.71 134.013 508.674 133.809 508.671 133.603C508.673 133.433 508.635 133.265 508.558 133.114C508.527 132.805 508.41 132.51 508.222 132.263C508.064 132.122 507.915 131.971 507.775 131.813C507.588 131.626 507.359 131.485 507.108 131.403C506.521 131.075 505.878 130.859 505.213 130.764C504.832 130.666 504.438 130.626 504.045 130.643C503.655 130.666 503.264 130.666 502.874 130.643C502.042 130.609 501.211 130.725 500.42 130.985C498.64 131.484 496.975 132.328 495.52 133.468C494.702 134.049 493.952 134.72 493.283 135.468C492.618 136.168 491.983 136.888 491.391 137.645C490.145 139.26 489.061 140.995 488.156 142.823" fill="white"/>
<path d="M141.039 216.474L138.621 218.238C138.239 217.514 137.764 217.209 137.204 217.313C136.934 217.363 136.691 217.504 136.514 217.713C136.328 217.918 136.226 218.185 136.226 218.462C136.226 218.957 136.792 219.341 137.917 219.613C139.042 219.814 140.11 220.254 141.051 220.903C141.336 221.182 141.556 221.521 141.696 221.895C141.835 222.268 141.891 222.668 141.86 223.066C141.855 224.323 141.371 225.531 140.508 226.445C139.677 227.375 138.561 228.003 137.335 228.229C136.429 228.483 135.462 228.386 134.625 227.957C133.788 227.528 133.144 226.799 132.822 225.916L135.322 224.273C135.533 224.653 135.8 224.999 136.114 225.299C136.294 225.433 136.502 225.526 136.722 225.571C136.942 225.616 137.17 225.613 137.389 225.562C137.804 225.539 138.194 225.351 138.472 225.041C138.749 224.731 138.893 224.324 138.871 223.908C138.871 223.376 138.492 222.955 137.729 222.641C137.429 222.541 137.138 222.454 136.844 222.37C136.55 222.286 136.25 222.192 135.944 222.101C135.28 221.937 134.666 221.617 134.151 221.168C133.918 220.902 133.739 220.593 133.626 220.258C133.512 219.924 133.466 219.57 133.489 219.217C133.481 218.113 133.883 217.046 134.617 216.222C135.34 215.376 136.331 214.804 137.425 214.599C138.152 214.422 138.92 214.514 139.585 214.859C140.249 215.204 140.767 215.777 141.042 216.474" fill="white"/>
<path d="M144.709 208.232C144.715 207.694 144.915 207.176 145.272 206.773C145.607 206.349 146.081 206.059 146.61 205.953C146.845 205.898 147.089 205.898 147.323 205.953C147.558 206.008 147.776 206.117 147.962 206.27C148.147 206.421 148.295 206.613 148.392 206.831C148.489 207.049 148.534 207.287 148.522 207.526C148.52 208.071 148.321 208.597 147.962 209.008C147.632 209.437 147.156 209.729 146.624 209.831C146.389 209.886 146.143 209.886 145.908 209.83C145.672 209.775 145.453 209.665 145.267 209.51C145.081 209.354 144.934 209.158 144.838 208.936C144.741 208.714 144.697 208.473 144.71 208.231M148.078 212.953V225.846L145.154 226.392V213.506L148.078 212.953Z" fill="white"/>
<path d="M152.449 212.138L155.39 211.587V212.777C156.244 211.656 157.47 210.876 158.848 210.577C159.44 210.409 160.065 210.391 160.667 210.524C161.268 210.658 161.826 210.939 162.292 211.343C163.002 212.013 163.357 213.257 163.358 215.076V222.976L160.423 223.527V216.327C160.516 215.45 160.334 214.565 159.903 213.796C159.563 213.366 158.947 213.235 158.054 213.403C157.628 213.459 157.221 213.61 156.862 213.847C156.504 214.084 156.205 214.399 155.987 214.769C155.514 215.868 155.309 217.063 155.387 218.256V224.474L152.446 225.028L152.449 212.138Z" fill="white"/>
<path d="M177.576 207.966V211.925C177.079 211.347 176.466 210.881 175.776 210.556C175.193 210.33 174.555 210.283 173.944 210.42C172.849 210.625 171.87 211.231 171.198 212.12C170.48 213.013 170.094 214.127 170.106 215.273C170.072 215.785 170.149 216.298 170.331 216.778C170.513 217.258 170.796 217.692 171.161 218.053C171.527 218.375 171.965 218.602 172.439 218.717C172.912 218.831 173.406 218.828 173.878 218.709C174.554 218.588 175.192 218.309 175.739 217.895C176.446 217.289 177.063 216.585 177.571 215.805V219.733C176.516 220.525 175.3 221.074 174.008 221.342C173.165 221.55 172.287 221.568 171.436 221.394C170.585 221.22 169.784 220.858 169.091 220.335C168.435 219.8 167.914 219.117 167.572 218.343C167.23 217.568 167.075 216.724 167.121 215.878C167.124 213.943 167.836 212.076 169.121 210.63C170.365 209.111 172.106 208.081 174.036 207.723C175.216 207.483 176.438 207.569 177.573 207.969" fill="white"/>
<path d="M192.612 211.733L183.535 213.441C183.539 213.879 183.631 214.311 183.806 214.712C183.981 215.114 184.236 215.475 184.554 215.776C184.873 216.03 185.247 216.207 185.646 216.292C186.045 216.377 186.459 216.369 186.854 216.268C187.525 216.156 188.15 215.854 188.654 215.397C189.291 214.724 189.83 213.964 190.254 213.14L192.725 214.079C192.379 214.756 191.976 215.401 191.518 216.008C191.118 216.531 190.659 217.008 190.152 217.428C189.673 217.819 189.143 218.143 188.577 218.392C187.989 218.648 187.373 218.834 186.742 218.946C185.959 219.156 185.137 219.175 184.345 219.001C183.553 218.827 182.815 218.465 182.192 217.946C181.589 217.345 181.124 216.62 180.828 215.822C180.532 215.024 180.412 214.172 180.476 213.323C180.429 211.432 181.015 209.58 182.142 208.061C183.228 206.629 184.818 205.664 186.59 205.361C187.351 205.151 188.151 205.131 188.922 205.302C189.692 205.473 190.409 205.83 191.01 206.342C191.591 206.968 192.034 207.708 192.312 208.515C192.589 209.323 192.695 210.179 192.622 211.03L192.612 211.733ZM189.612 209.864C189.563 209.537 189.443 209.224 189.261 208.948C189.078 208.672 188.838 208.438 188.557 208.264C188.275 208.091 187.959 207.98 187.63 207.941C187.302 207.902 186.969 207.934 186.654 208.037C186.304 208.1 185.966 208.22 185.654 208.39C185.339 208.558 185.051 208.773 184.8 209.026C184.541 209.284 184.32 209.577 184.144 209.897C183.958 210.234 183.818 210.595 183.728 210.969L189.612 209.864Z" fill="white"/>
<path d="M201.846 198.197L198.374 198.847L200.04 195.647L204.878 194.736V215.173L201.847 215.741L201.846 198.197Z" fill="white"/>
<path d="M217.713 213.46L215.49 212.196L220.29 204.637C220.033 204.722 219.809 204.793 219.628 204.843C219.482 204.887 219.334 204.924 219.184 204.953C218.446 205.118 217.678 205.105 216.946 204.913C216.214 204.722 215.538 204.358 214.974 203.853C214.385 203.33 213.921 202.682 213.615 201.956C213.309 201.231 213.168 200.446 213.204 199.659C213.266 197.759 213.958 195.933 215.171 194.469C216.383 193.005 218.049 191.986 219.904 191.572C220.731 191.384 221.589 191.385 222.415 191.573C223.241 191.762 224.014 192.134 224.677 192.661C225.333 193.16 225.859 193.808 226.212 194.552C226.564 195.296 226.733 196.114 226.704 196.937C226.569 198.925 225.885 200.836 224.73 202.46L217.713 213.46ZM216.152 198.88C216.126 199.365 216.212 199.85 216.404 200.296C216.596 200.742 216.888 201.138 217.258 201.453C217.628 201.758 218.063 201.974 218.53 202.084C218.997 202.193 219.483 202.193 219.95 202.084C221.002 201.853 221.946 201.277 222.634 200.449C223.321 199.62 223.712 198.585 223.745 197.509C223.769 197.03 223.68 196.552 223.486 196.112C223.293 195.673 222.999 195.286 222.63 194.98C222.26 194.674 221.824 194.458 221.357 194.35C220.889 194.241 220.403 194.244 219.936 194.356C218.897 194.591 217.963 195.161 217.28 195.979C216.596 196.796 216.2 197.815 216.152 198.88Z" fill="white"/>
<path d="M234.815 210.248L232.592 208.984L237.392 201.428C237.132 201.51 236.908 201.584 236.728 201.628C236.582 201.672 236.434 201.709 236.284 201.738C235.545 201.903 234.778 201.89 234.046 201.698C233.313 201.507 232.637 201.143 232.074 200.638C231.485 200.114 231.02 199.465 230.714 198.738C230.408 198.012 230.268 197.226 230.304 196.438C230.366 194.538 231.057 192.712 232.27 191.248C233.483 189.784 235.148 188.765 237.004 188.351C237.83 188.165 238.687 188.166 239.512 188.355C240.338 188.543 241.111 188.914 241.774 189.44C242.43 189.938 242.956 190.587 243.309 191.331C243.662 192.075 243.831 192.893 243.802 193.716C243.668 195.704 242.984 197.616 241.828 199.239L234.815 210.248ZM233.258 195.669C233.227 196.152 233.309 196.635 233.499 197.08C233.688 197.525 233.979 197.919 234.349 198.231C234.719 198.543 235.156 198.764 235.627 198.876C236.097 198.988 236.587 198.988 237.058 198.876C238.11 198.644 239.055 198.067 239.743 197.238C240.431 196.409 240.823 195.375 240.858 194.298C240.881 193.819 240.792 193.34 240.598 192.902C240.404 192.463 240.11 192.075 239.74 191.769C239.37 191.463 238.934 191.248 238.466 191.14C237.999 191.032 237.512 191.035 237.046 191.148C236.006 191.381 235.071 191.95 234.387 192.767C233.702 193.584 233.305 194.604 233.258 195.669Z" fill="white"/>
<path d="M250.568 195.959C249.856 195.596 249.267 195.032 248.874 194.336C248.481 193.641 248.301 192.845 248.357 192.048C248.351 190.404 248.946 188.814 250.031 187.578C251.099 186.291 252.586 185.422 254.231 185.121C254.946 184.943 255.692 184.93 256.413 185.083C257.134 185.237 257.81 185.552 258.391 186.006C258.951 186.473 259.393 187.066 259.682 187.735C259.972 188.404 260.1 189.132 260.057 189.86C260.045 190.757 259.844 191.641 259.465 192.455C259.087 193.268 258.54 193.992 257.861 194.578C258.663 194.859 259.337 195.418 259.761 196.153C260.247 196.976 260.489 197.92 260.461 198.876C260.483 200.626 259.864 202.324 258.719 203.649C257.585 205.008 256.004 205.92 254.26 206.222C253.477 206.421 252.659 206.445 251.865 206.292C251.072 206.139 250.322 205.813 249.668 205.337C249.062 204.858 248.58 204.24 248.263 203.535C247.946 202.83 247.803 202.06 247.847 201.288C247.806 200.241 248.034 199.201 248.51 198.267C248.987 197.334 249.695 196.539 250.567 195.958M250.827 200.621C250.809 201.045 250.885 201.467 251.052 201.857C251.218 202.247 251.47 202.595 251.788 202.875C252.111 203.147 252.493 203.34 252.903 203.437C253.314 203.535 253.742 203.535 254.152 203.438C255.077 203.234 255.907 202.727 256.51 201.998C257.114 201.268 257.456 200.357 257.483 199.411C257.504 198.991 257.426 198.572 257.257 198.187C257.088 197.802 256.832 197.462 256.51 197.193C256.187 196.923 255.806 196.733 255.397 196.636C254.988 196.539 254.562 196.538 254.152 196.634C253.222 196.819 252.388 197.328 251.799 198.071C251.179 198.777 250.833 199.682 250.826 200.622M251.202 191.503C251.181 191.886 251.249 192.268 251.4 192.62C251.551 192.972 251.782 193.284 252.073 193.533C252.366 193.775 252.711 193.947 253.08 194.033C253.45 194.12 253.835 194.12 254.205 194.033C255.036 193.847 255.781 193.39 256.324 192.734C256.867 192.079 257.177 191.262 257.205 190.411C257.221 190.034 257.15 189.658 256.997 189.313C256.844 188.967 256.613 188.662 256.323 188.421C256.033 188.18 255.69 188.008 255.323 187.921C254.956 187.834 254.573 187.832 254.205 187.917C253.365 188.082 252.612 188.543 252.084 189.217C251.527 189.849 251.214 190.66 251.202 191.503Z" fill="white"/>
<path d="M273.397 168.489L123.055 196.758L123.366 198.412L273.708 170.143L273.397 168.489Z" fill="white"/>
<path d="M273.397 215.025L123.055 243.294L123.366 244.948L273.708 216.679L273.397 215.025Z" fill="white"/>
</g>
</g>
</g>
<defs>
<clipPath id="clip0_31_235">
<rect width="566" height="269.427" fill="white"/>
</clipPath>
</defs>
</svg>
